<?xml version="1.0" encoding="UTF-8" standalone="no" ?>
<!DOCTYPE svg PUBLIC "-//W3C//DTD SVG 1.1//EN" "http://www.w3.org/Graphics/SVG/1.1/DTD/svg11.dtd">
<svg xmlns="http://www.w3.org/2000/svg" xmlns:xlink="http://www.w3.org/1999/xlink" version="1.1" width="794" height="1123" viewBox="0 0 794 1123" xml:space="preserve">
<desc>Created with Fabric.js 5.3.0</desc>
<defs>
</defs>
<g transform="matrix(1.1676470588235295 0 0 1.1676470588235295 397 561.5)" id="background-4b133c6c-9810-4e2e-b1da-501b20704825"  >
<rect style="stroke: none; stroke-width: 0; stroke-dasharray: none; stroke-linecap: butt; stroke-dashoffset: 0; stroke-linejoin: miter; stroke-miterlimit: 4; fill: rgb(255,255,255); fill-rule: nonzero; opacity: 1;"  paint-order="stroke"  x="-340" y="-480.8816120906801" rx="0" ry="0" width="680" height="961.7632241813602" />
</g>
<g transform="matrix(1.1676470588235295 0 0 1.1676470588235295 251.90940823380956 348.7622455044592)" id="text-logo"  >
<g style=""  paint-order="stroke"   >
		<g transform="matrix(1 0 0 1 0 0)" id="text-logo-path-0"  >
<path style="stroke: none; stroke-width: 0; stroke-dasharray: none; stroke-linecap: butt; stroke-dashoffset: 0; stroke-linejoin: miter; stroke-miterlimit: 4; fill: rgb(66,66,66); fill-rule: nonzero; opacity: 0.79;"  paint-order="stroke"  transform=" translate(-75.11000000000001, 57.4)" d="M 31.16 0 L 48.54 0 L 75.11 -92.99 L 101.68 0 L 119.06 0 L 148.58 -114.8 L 132.84 -114.8 L 109.22 -17.88 L 82.98 -114.8 L 67.24 -114.8 L 41 -17.88 L 17.38 -114.8 L 1.64 -114.8 Z" stroke-linecap="round" />
</g>
</g>
</g>
<g transform="matrix(1.1676470588235295 0 0 1.1676470588235295 350.28764373041355 496.42728904834775)" id="tagline-f79d5bc6-57e9-42a1-8f77-7eaf79bb12b3-logo"  >
<g style=""  paint-order="stroke"   >
		<g transform="matrix(1 0 0 1 0 0)" id="tagline-f79d5bc6-57e9-42a1-8f77-7eaf79bb12b3-logo-path-0"  >
<path style="stroke: none; stroke-width: 0; stroke-dasharray: none; stroke-linecap: butt; stroke-dashoffset: 0; stroke-linejoin: miter; stroke-miterlimit: 4; fill: rgb(66,66,66); fill-rule: nonzero; opacity: 1;"  paint-order="stroke"  transform=" translate(-98.07, 57.4)" d="M 43.13 -114.8 L 0.49 0 L 16.24 0 L 24.76 -23.78 L 80.52 -23.78 L 89.05 0 L 104.8 0 L 62.16 -114.8 Z M 29.36 -36.9 L 52.64 -102.01 L 75.93 -36.9 Z M 101.02 -114.8 L 101.02 0 L 115.78 0 L 115.78 -39.69 L 133.17 -56.58 L 175.97 0 L 195.65 0 L 195.65 -13.12 L 184.66 -13.12 L 143.83 -67.08 L 192.7 -114.8 L 171.54 -114.8 L 115.78 -60.35 L 115.78 -114.8 Z" stroke-linecap="round" />
</g>
</g>
</g>
<g transform="matrix(1.1676470588235295 0 0 1.1676470588235295 249.2284862037983 645.2493964415439)" id="tagline-1d770f53-e4fb-4f43-8356-cb31e7804c01-logo"  >
<g style=""  paint-order="stroke"   >
		<g transform="matrix(1 0 0 1 -2.842171e-14 0)" id="tagline-1d770f53-e4fb-4f43-8356-cb31e7804c01-logo-path-0"  >
<path style="stroke: none; stroke-width: 0; stroke-dasharray: none; stroke-linecap: butt; stroke-dashoffset: 0; stroke-linejoin: miter; stroke-miterlimit: 4; fill: rgb(66,66,66); fill-rule: nonzero; opacity: 1;"  paint-order="stroke"  transform=" translate(-133.09, 57.4)" d="M 49.53 2.62 C 72.65 2.62 95.61 -6.23 95.61 -30.67 C 95.61 -55.92 72 -62.65 51.5 -68.22 C 35.92 -72.49 22.14 -74.95 22.14 -87.08 C 22.14 -96.92 34.28 -103.48 50.51 -103.48 C 62.16 -103.48 72.16 -98.89 78.23 -84.79 L 92.17 -91.02 C 84.3 -110.04 68.55 -117.42 50.51 -117.42 C 27.22 -117.42 7.05 -105.45 7.05 -86.59 C 7.05 -65.27 27.72 -58.88 47.23 -53.3 C 64.45 -48.38 80.52 -45.1 80.52 -30.01 C 80.52 -17.38 66.91 -11.32 50.51 -11.32 C 36.74 -11.32 25.09 -16.24 18.04 -30.01 L 3.94 -23.78 C 14.27 -3.77 29.85 2.62 49.53 2.62 Z M 177.12 -114.8 L 86.92 -114.8 L 86.92 -101.68 L 124.64 -101.68 L 124.64 0 L 139.4 0 L 139.4 -101.68 L 177.12 -101.68 Z M 217.3 2.62 C 243.54 2.62 262.24 -14.27 262.24 -41 L 262.24 -114.8 L 247.48 -114.8 L 247.48 -40.67 C 247.48 -22.63 235.01 -11.32 217.3 -11.32 C 199.26 -11.32 186.8 -22.63 186.8 -40.67 L 186.8 -114.8 L 172.04 -114.8 L 172.04 -41 C 172.04 -14.27 190.57 2.62 217.3 2.62 Z" stroke-linecap="round" />
</g>
</g>
</g>
<g transform="matrix(1.1676470588235295 0 0 1.1676470588235295 384.5373482906794 142.07056055874438)" id="tagline-26e606c0-9b2e-478b-ae57-c89c53a9edbd-logo"  >
<g style=""  paint-order="stroke"   >
		<g transform="matrix(1 0 0 1 0 0)" id="tagline-26e606c0-9b2e-478b-ae57-c89c53a9edbd-logo-path-0"  >
<path style="stroke: none; stroke-width: 0; stroke-dasharray: none; stroke-linecap: butt; stroke-dashoffset: 0; stroke-linejoin: miter; stroke-miterlimit: 4; fill: rgb(66,66,66); fill-rule: nonzero; opacity: 0.78;"  paint-order="stroke"  transform=" translate(-300.99, 14.585)" d="M 26.19 -29.27 L 26.19 0 L 22.78 0 L 22.78 -13.79 L 7.41 -13.79 L 7.41 0 L 4 0 L 4 -29.27 L 7.41 -29.27 L 7.41 -16.8 L 22.78 -16.8 L 22.78 -29.27 L 26.19 -29.27 Z M 56.11 0 L 52.59 0 L 48.99 -9.29 L 37.26 -9.29 L 33.67 0 L 30.23 0 L 41.68 -29.39 L 44.74 -29.39 L 56.11 0 Z M 38.4 -12.31 L 47.97 -12.31 L 44.54 -21.54 C 44.46 -21.78 44.34 -22.18 44.16 -22.72 C 43.98 -23.26 43.78 -23.84 43.6 -24.42 C 43.42 -25 43.26 -25.48 43.14 -25.85 L 43.14 -25.85 C 43 -25.3 42.86 -24.76 42.72 -24.22 C 42.56 -23.68 42.4 -23.18 42.26 -22.72 C 42.12 -22.26 41.98 -21.86 41.88 -21.54 L 41.88 -21.54 L 38.4 -12.31 Z M 77 -29.27 L 80.6 -29.27 L 70.09 0 L 66.67 0 L 56.15 -29.27 L 59.72 -29.27 L 66.56 -9.99 C 66.85 -9.21 67.11 -8.47 67.33 -7.77 C 67.55 -7.07 67.73 -6.39 67.91 -5.73 C 68.09 -5.06 68.23 -4.44 68.37 -3.82 L 68.37 -3.82 C 68.51 -4.44 68.65 -5.08 68.83 -5.75 C 69.01 -6.41 69.21 -7.09 69.43 -7.81 C 69.65 -8.51 69.91 -9.27 70.19 -10.05 L 70.19 -10.05 L 77 -29.27 Z M 100.9 -3 L 100.9 0 L 84.6 0 L 84.6 -29.27 L 100.9 -29.27 L 100.9 -26.27 L 88.01 -26.27 L 88.01 -16.8 L 100.16 -16.8 L 100.16 -13.83 L 88.01 -13.83 L 88.01 -3 L 100.9 -3 Z M 117.75 -29.27 L 125.5 -14.59 L 133.29 -29.27 L 136.95 -29.27 L 127.2 -11.35 L 127.2 0 L 123.8 0 L 123.8 -11.19 L 114.03 -29.27 L 117.75 -29.27 Z M 166.34 -14.67 L 166.34 -14.67 C 166.34 -12.41 166.06 -10.37 165.48 -8.53 C 164.9 -6.67 164.06 -5.08 162.94 -3.76 C 161.8 -2.42 160.4 -1.4 158.73 -0.68 C 157.07 0.04 155.13 0.4 152.93 0.4 L 152.93 0.4 C 150.67 0.4 148.69 0.04 147 -0.68 C 145.3 -1.4 143.9 -2.42 142.8 -3.76 C 141.68 -5.1 140.84 -6.69 140.3 -8.55 C 139.74 -10.41 139.46 -12.45 139.46 -14.71 L 139.46 -14.71 C 139.46 -17.7 139.96 -20.32 140.94 -22.58 C 141.92 -24.84 143.42 -26.59 145.44 -27.85 C 147.44 -29.11 149.97 -29.73 152.99 -29.73 L 152.99 -29.73 C 155.89 -29.73 158.33 -29.11 160.32 -27.87 C 162.3 -26.63 163.8 -24.88 164.82 -22.64 C 165.84 -20.38 166.34 -17.74 166.34 -14.67 Z M 143.04 -14.67 L 143.04 -14.67 C 143.04 -12.19 143.4 -10.05 144.1 -8.23 C 144.8 -6.41 145.9 -5 147.36 -4.02 C 148.83 -3.04 150.67 -2.54 152.93 -2.54 L 152.93 -2.54 C 155.19 -2.54 157.05 -3.04 158.51 -4.02 C 159.96 -5 161.02 -6.41 161.72 -8.23 C 162.42 -10.05 162.76 -12.19 162.76 -14.67 L 162.76 -14.67 C 162.76 -18.46 161.98 -21.4 160.4 -23.54 C 158.81 -25.67 156.33 -26.73 152.99 -26.73 L 152.99 -26.73 C 150.73 -26.73 148.85 -26.25 147.38 -25.26 C 145.92 -24.28 144.82 -22.9 144.12 -21.12 C 143.4 -19.32 143.04 -17.18 143.04 -14.67 Z M 191.61 -29.27 L 194.99 -29.27 L 194.99 -10.33 C 194.99 -8.27 194.57 -6.43 193.75 -4.8 C 192.91 -3.18 191.65 -1.92 189.97 -1 C 188.28 -0.06 186.18 0.4 183.64 0.4 L 183.64 0.4 C 180.02 0.4 177.27 -0.58 175.39 -2.54 C 173.49 -4.5 172.55 -7.13 172.55 -10.41 L 172.55 -10.41 L 172.55 -29.27 L 175.97 -29.27 L 175.97 -10.31 C 175.97 -7.83 176.63 -5.91 177.95 -4.56 C 179.25 -3.22 181.22 -2.54 183.84 -2.54 L 183.84 -2.54 C 185.62 -2.54 187.1 -2.86 188.24 -3.52 C 189.38 -4.16 190.23 -5.06 190.79 -6.25 C 191.33 -7.41 191.61 -8.75 191.61 -10.29 L 191.61 -10.29 L 191.61 -29.27 Z M 229.04 0 L 226.26 0 L 216.43 -25.91 L 216.27 -25.91 C 216.33 -25.36 216.37 -24.68 216.41 -23.9 C 216.45 -23.12 216.49 -22.26 216.51 -21.34 C 216.53 -20.4 216.55 -19.46 216.55 -18.5 L 216.55 -18.5 L 216.55 0 L 213.39 0 L 213.39 -29.27 L 218.43 -29.27 L 227.7 -4.92 L 227.84 -4.92 L 237.25 -29.27 L 242.26 -29.27 L 242.26 0 L 238.89 0 L 238.89 -18.74 C 238.89 -19.6 238.91 -20.48 238.93 -21.36 C 238.95 -22.22 238.99 -23.06 239.03 -23.84 C 239.07 -24.62 239.11 -25.28 239.15 -25.87 L 239.15 -25.87 L 238.99 -25.87 L 229.04 0 Z M 266.56 -3 L 266.56 0 L 250.26 0 L 250.26 -29.27 L 266.56 -29.27 L 266.56 -26.27 L 253.67 -26.27 L 253.67 -16.8 L 265.82 -16.8 L 265.82 -13.83 L 253.67 -13.83 L 253.67 -3 L 266.56 -3 Z M 282.04 -26.27 L 282.04 0 L 278.61 0 L 278.61 -26.27 L 269.4 -26.27 L 269.4 -29.27 L 291.2 -29.27 L 291.2 -26.27 L 282.04 -26.27 Z M 306 -29.27 L 313.75 -14.59 L 321.53 -29.27 L 325.2 -29.27 L 315.45 -11.35 L 315.45 0 L 312.04 0 L 312.04 -11.19 L 302.27 -29.27 L 306 -29.27 Z M 354.59 -14.67 L 354.59 -14.67 C 354.59 -12.41 354.31 -10.37 353.73 -8.53 C 353.14 -6.67 352.3 -5.08 351.18 -3.76 C 350.04 -2.42 348.64 -1.4 346.98 -0.68 C 345.32 0.04 343.38 0.4 341.17 0.4 L 341.17 0.4 C 338.91 0.4 336.93 0.04 335.25 -0.68 C 333.55 -1.4 332.14 -2.42 331.04 -3.76 C 329.92 -5.1 329.08 -6.69 328.54 -8.55 C 327.98 -10.41 327.7 -12.45 327.7 -14.71 L 327.7 -14.71 C 327.7 -17.7 328.2 -20.32 329.18 -22.58 C 330.16 -24.84 331.66 -26.59 333.69 -27.85 C 335.69 -29.11 338.21 -29.73 341.23 -29.73 L 341.23 -29.73 C 344.14 -29.73 346.58 -29.11 348.56 -27.87 C 350.54 -26.63 352.04 -24.88 353.06 -22.64 C 354.09 -20.38 354.59 -17.74 354.59 -14.67 Z M 331.28 -14.67 L 331.28 -14.67 C 331.28 -12.19 331.64 -10.05 332.34 -8.23 C 333.04 -6.41 334.15 -5 335.61 -4.02 C 337.07 -3.04 338.91 -2.54 341.17 -2.54 L 341.17 -2.54 C 343.44 -2.54 345.3 -3.04 346.76 -4.02 C 348.2 -5 349.26 -6.41 349.96 -8.23 C 350.66 -10.05 351 -12.19 351 -14.67 L 351 -14.67 C 351 -18.46 350.22 -21.4 348.64 -23.54 C 347.06 -25.67 344.58 -26.73 341.23 -26.73 L 341.23 -26.73 C 338.97 -26.73 337.09 -26.25 335.63 -25.26 C 334.17 -24.28 333.06 -22.9 332.36 -21.12 C 331.64 -19.32 331.28 -17.18 331.28 -14.67 Z M 379.85 -29.27 L 383.23 -29.27 L 383.23 -10.33 C 383.23 -8.27 382.81 -6.43 381.99 -4.8 C 381.15 -3.18 379.89 -1.92 378.21 -1 C 376.53 -0.06 374.43 0.4 371.88 0.4 L 371.88 0.4 C 368.26 0.4 365.52 -0.58 363.63 -2.54 C 361.73 -4.5 360.79 -7.13 360.79 -10.41 L 360.79 -10.41 L 360.79 -29.27 L 364.22 -29.27 L 364.22 -10.31 C 364.22 -7.83 364.88 -5.91 366.2 -4.56 C 367.5 -3.22 369.46 -2.54 372.08 -2.54 L 372.08 -2.54 C 373.86 -2.54 375.35 -2.86 376.49 -3.52 C 377.63 -4.16 378.47 -5.06 379.03 -6.25 C 379.57 -7.41 379.85 -8.75 379.85 -10.29 L 379.85 -10.29 L 379.85 -29.27 Z M 390.98 -29.27 L 398.89 -29.27 C 401.29 -29.27 403.27 -28.97 404.85 -28.39 C 406.42 -27.79 407.58 -26.89 408.36 -25.67 C 409.14 -24.44 409.52 -22.9 409.52 -21.02 L 409.52 -21.02 C 409.52 -19.48 409.24 -18.18 408.68 -17.16 C 408.12 -16.12 407.38 -15.27 406.48 -14.63 C 405.58 -13.99 404.59 -13.49 403.57 -13.15 L 403.57 -13.15 L 411.6 0 L 407.64 0 L 400.47 -12.21 L 394.38 -12.21 L 394.38 0 L 390.98 0 L 390.98 -29.27 Z M 398.69 -26.33 L 394.38 -26.33 L 394.38 -15.09 L 399.03 -15.09 C 401.41 -15.09 403.17 -15.58 404.31 -16.56 C 405.44 -17.54 406 -18.96 406 -20.86 L 406 -20.86 C 406 -22.84 405.4 -24.26 404.21 -25.08 C 403.01 -25.91 401.17 -26.33 398.69 -26.33 L 398.69 -26.33 Z M 442.59 0 L 439.81 0 L 429.98 -25.91 L 429.82 -25.91 C 429.88 -25.36 429.92 -24.68 429.96 -23.9 C 430 -23.12 430.04 -22.26 430.06 -21.34 C 430.08 -20.4 430.1 -19.46 430.1 -18.5 L 430.1 -18.5 L 430.1 0 L 426.94 0 L 426.94 -29.27 L 431.98 -29.27 L 441.25 -4.92 L 441.39 -4.92 L 450.8 -29.27 L 455.8 -29.27 L 455.8 0 L 452.44 0 L 452.44 -18.74 C 452.44 -19.6 452.46 -20.48 452.48 -21.36 C 452.5 -22.22 452.54 -23.06 452.58 -23.84 C 452.62 -24.62 452.66 -25.28 452.7 -25.87 L 452.7 -25.87 L 452.54 -25.87 L 442.59 0 Z M 485.69 0 L 482.17 0 L 478.57 -9.29 L 466.84 -9.29 L 463.25 0 L 459.81 0 L 471.26 -29.39 L 474.32 -29.39 L 485.69 0 Z M 467.98 -12.31 L 477.55 -12.31 L 474.12 -21.54 C 474.04 -21.78 473.92 -22.18 473.74 -22.72 C 473.56 -23.26 473.36 -23.84 473.18 -24.42 C 473 -25 472.84 -25.48 472.72 -25.85 L 472.72 -25.85 C 472.58 -25.3 472.44 -24.76 472.3 -24.22 C 472.14 -23.68 471.98 -23.18 471.84 -22.72 C 471.7 -22.26 471.56 -21.86 471.46 -21.54 L 471.46 -21.54 L 467.98 -12.31 Z M 498.75 -16.58 L 510.84 0 L 506.81 0 L 496.26 -14.23 L 493.14 -11.43 L 493.14 0 L 489.74 0 L 489.74 -29.27 L 493.14 -29.27 L 493.14 -14.67 C 493.9 -15.54 494.68 -16.42 495.48 -17.28 C 496.28 -18.14 497.08 -19 497.87 -19.88 L 497.87 -19.88 L 506.41 -29.27 L 510.4 -29.27 L 498.75 -16.58 Z M 531.14 -3 L 531.14 0 L 514.84 0 L 514.84 -29.27 L 531.14 -29.27 L 531.14 -26.27 L 518.25 -26.27 L 518.25 -16.8 L 530.4 -16.8 L 530.4 -13.83 L 518.25 -13.83 L 518.25 -3 L 531.14 -3 Z M 537.62 -29.27 L 545.53 -29.27 C 547.93 -29.27 549.92 -28.97 551.5 -28.39 C 553.06 -27.79 554.22 -26.89 555 -25.67 C 555.78 -24.44 556.16 -22.9 556.16 -21.02 L 556.16 -21.02 C 556.16 -19.48 555.88 -18.18 555.32 -17.16 C 554.76 -16.12 554.02 -15.27 553.12 -14.63 C 552.22 -13.99 551.24 -13.49 550.22 -13.15 L 550.22 -13.15 L 558.24 0 L 554.28 0 L 547.11 -12.21 L 541.03 -12.21 L 541.03 0 L 537.62 0 L 537.62 -29.27 Z M 545.33 -26.33 L 541.03 -26.33 L 541.03 -15.09 L 545.67 -15.09 C 548.05 -15.09 549.82 -15.58 550.96 -16.56 C 552.08 -17.54 552.64 -18.96 552.64 -20.86 L 552.64 -20.86 C 552.64 -22.84 552.04 -24.26 550.86 -25.08 C 549.66 -25.91 547.81 -26.33 545.33 -26.33 L 545.33 -26.33 Z M 579.45 -7.79 L 579.45 -7.79 C 579.45 -6.05 579 -4.58 578.16 -3.36 C 577.3 -2.14 576.08 -1.2 574.54 -0.56 C 573 0.08 571.18 0.4 569.08 0.4 L 569.08 0.4 C 567.97 0.4 566.91 0.34 565.93 0.24 C 564.95 0.14 564.03 -0.02 563.21 -0.22 C 562.39 -0.42 561.65 -0.66 561.03 -0.96 L 561.03 -0.96 L 561.03 -4.22 C 562.03 -3.8 563.25 -3.42 564.69 -3.08 C 566.13 -2.72 567.63 -2.54 569.22 -2.54 L 569.22 -2.54 C 570.68 -2.54 571.92 -2.74 572.94 -3.14 C 573.96 -3.52 574.72 -4.1 575.26 -4.84 C 575.78 -5.59 576.04 -6.47 576.04 -7.51 L 576.04 -7.51 C 576.04 -8.51 575.82 -9.35 575.38 -10.03 C 574.94 -10.69 574.22 -11.31 573.2 -11.87 C 572.18 -12.41 570.78 -13.01 569.02 -13.63 L 569.02 -13.63 C 567.77 -14.07 566.67 -14.55 565.73 -15.09 C 564.79 -15.62 563.99 -16.22 563.35 -16.88 C 562.71 -17.54 562.23 -18.32 561.91 -19.2 C 561.57 -20.08 561.41 -21.08 561.41 -22.22 L 561.41 -22.22 C 561.41 -23.78 561.81 -25.12 562.61 -26.25 C 563.39 -27.35 564.49 -28.21 565.91 -28.81 C 567.31 -29.39 568.94 -29.69 570.76 -29.69 L 570.76 -29.69 C 572.32 -29.69 573.76 -29.55 575.1 -29.25 C 576.42 -28.95 577.64 -28.57 578.74 -28.07 L 578.74 -28.07 L 577.68 -25.14 C 576.62 -25.58 575.52 -25.95 574.34 -26.25 C 573.16 -26.55 571.94 -26.69 570.68 -26.69 L 570.68 -26.69 C 569.42 -26.69 568.35 -26.51 567.51 -26.15 C 566.65 -25.77 565.99 -25.24 565.53 -24.58 C 565.07 -23.92 564.85 -23.12 564.85 -22.2 L 564.85 -22.2 C 564.85 -21.18 565.07 -20.32 565.51 -19.64 C 565.93 -18.96 566.63 -18.36 567.59 -17.84 C 568.53 -17.3 569.8 -16.76 571.38 -16.18 L 571.38 -16.18 C 573.1 -15.56 574.56 -14.89 575.76 -14.19 C 576.96 -13.49 577.88 -12.63 578.5 -11.63 C 579.13 -10.61 579.45 -9.33 579.45 -7.79 Z M 589.84 -8.13 L 587.17 -8.13 L 587.17 -9.17 C 587.17 -10.23 587.27 -11.15 587.47 -11.93 C 587.67 -12.69 588.03 -13.41 588.53 -14.07 C 589.03 -14.73 589.72 -15.46 590.62 -16.2 L 590.62 -16.2 C 591.66 -17.06 592.48 -17.8 593.1 -18.42 C 593.7 -19.02 594.14 -19.62 594.4 -20.24 C 594.66 -20.86 594.8 -21.6 594.8 -22.46 L 594.8 -22.46 C 594.8 -23.84 594.36 -24.92 593.46 -25.67 C 592.56 -26.41 591.3 -26.77 589.68 -26.77 L 589.68 -26.77 C 588.35 -26.77 587.17 -26.61 586.15 -26.27 C 585.13 -25.93 584.13 -25.52 583.19 -25.06 L 583.19 -25.06 L 582.03 -27.75 C 583.13 -28.33 584.31 -28.79 585.59 -29.15 C 586.87 -29.51 588.29 -29.69 589.88 -29.69 L 589.88 -29.69 C 592.46 -29.69 594.44 -29.05 595.86 -27.79 C 597.28 -26.51 597.98 -24.74 597.98 -22.52 L 597.98 -22.52 C 597.98 -21.28 597.78 -20.22 597.38 -19.36 C 596.98 -18.48 596.42 -17.68 595.68 -16.96 C 594.94 -16.22 594.08 -15.46 593.08 -14.63 L 593.08 -14.63 C 592.2 -13.89 591.52 -13.23 591.06 -12.67 C 590.6 -12.09 590.28 -11.51 590.1 -10.93 C 589.92 -10.33 589.84 -9.61 589.84 -8.79 L 589.84 -8.79 L 589.84 -8.13 Z M 586.29 -2.08 L 586.29 -2.08 C 586.29 -3.02 586.51 -3.68 586.95 -4.08 C 587.39 -4.46 587.95 -4.66 588.65 -4.66 L 588.65 -4.66 C 589.31 -4.66 589.88 -4.46 590.34 -4.08 C 590.8 -3.68 591.02 -3.02 591.02 -2.08 L 591.02 -2.08 C 591.02 -1.16 590.8 -0.5 590.34 -0.08 C 589.88 0.34 589.31 0.56 588.65 0.56 L 588.65 0.56 C 587.95 0.56 587.39 0.34 586.95 -0.08 C 586.51 -0.5 586.29 -1.16 586.29 -2.08 Z" stroke-linecap="round" />
</g>
</g>
</g>
<g transform="matrix(1.1676470588235295 0 0 1.1676470588235295 402.47472115118035 207.00955299137195)" id="tagline-ebebddd4-cb91-4b8c-82c4-7079ed106e83-logo"  >
<g style=""  paint-order="stroke"   >
		<g transform="matrix(1 0 0 1 0 0)" id="tagline-ebebddd4-cb91-4b8c-82c4-7079ed106e83-logo-path-0"  >
<path style="stroke: none; stroke-width: 0; stroke-dasharray: none; stroke-linecap: butt; stroke-dashoffset: 0; stroke-linejoin: miter; stroke-miterlimit: 4; fill: rgb(66,66,66); fill-rule: nonzero; opacity: 0.78;"  paint-order="stroke"  transform=" translate(-180.10999999999999, 11.445)" d="M 26.3 -22.84 L 29.08 -22.84 L 22.97 0 L 20.3 0 L 15.77 -15.38 C 15.63 -15.81 15.5 -16.25 15.39 -16.7 C 15.27 -17.14 15.16 -17.56 15.05 -17.97 C 14.94 -18.36 14.86 -18.72 14.8 -19.03 C 14.72 -19.33 14.67 -19.56 14.64 -19.72 L 14.64 -19.72 C 14.63 -19.56 14.58 -19.33 14.53 -19.03 C 14.47 -18.73 14.39 -18.38 14.31 -17.98 C 14.22 -17.59 14.11 -17.17 14 -16.72 C 13.88 -16.27 13.75 -15.81 13.61 -15.36 L 13.61 -15.36 L 9.2 0 L 6.53 0 L 0.47 -22.84 L 3.23 -22.84 L 6.91 -8.52 C 7.03 -8.03 7.14 -7.56 7.27 -7.11 C 7.38 -6.64 7.47 -6.19 7.56 -5.75 C 7.64 -5.31 7.72 -4.89 7.8 -4.47 C 7.88 -4.05 7.94 -3.64 8 -3.25 L 8 -3.25 C 8.05 -3.66 8.13 -4.08 8.2 -4.53 C 8.28 -4.97 8.38 -5.42 8.48 -5.88 C 8.58 -6.33 8.69 -6.8 8.81 -7.27 C 8.92 -7.73 9.05 -8.2 9.19 -8.67 L 9.19 -8.67 L 13.3 -22.84 L 16.03 -22.84 L 20.31 -8.56 C 20.45 -8.08 20.59 -7.59 20.72 -7.11 C 20.84 -6.63 20.95 -6.16 21.06 -5.72 C 21.16 -5.27 21.25 -4.83 21.33 -4.42 C 21.41 -4 21.47 -3.61 21.53 -3.25 L 21.53 -3.25 C 21.61 -3.77 21.69 -4.3 21.8 -4.86 C 21.91 -5.42 22.03 -6.02 22.17 -6.63 C 22.31 -7.23 22.45 -7.88 22.63 -8.53 L 22.63 -8.53 L 26.3 -22.84 Z M 45.39 -2.34 L 45.39 0 L 32.67 0 L 32.67 -22.84 L 45.39 -22.84 L 45.39 -20.5 L 35.33 -20.5 L 35.33 -13.11 L 44.81 -13.11 L 44.81 -10.8 L 35.33 -10.8 L 35.33 -2.34 L 45.39 -2.34 Z M 81.94 -22.84 L 84.72 -22.84 L 78.61 0 L 75.94 0 L 71.41 -15.38 C 71.27 -15.81 71.14 -16.25 71.03 -16.7 C 70.91 -17.14 70.8 -17.56 70.69 -17.97 C 70.58 -18.36 70.5 -18.72 70.44 -19.03 C 70.36 -19.33 70.31 -19.56 70.28 -19.72 L 70.28 -19.72 C 70.27 -19.56 70.22 -19.33 70.17 -19.03 C 70.11 -18.73 70.03 -18.38 69.95 -17.98 C 69.86 -17.59 69.75 -17.17 69.64 -16.72 C 69.52 -16.27 69.39 -15.81 69.25 -15.36 L 69.25 -15.36 L 64.84 0 L 62.17 0 L 56.11 -22.84 L 58.88 -22.84 L 62.55 -8.52 C 62.67 -8.03 62.78 -7.56 62.91 -7.11 C 63.02 -6.64 63.11 -6.19 63.2 -5.75 C 63.28 -5.31 63.36 -4.89 63.44 -4.47 C 63.52 -4.05 63.58 -3.64 63.64 -3.25 L 63.64 -3.25 C 63.69 -3.66 63.77 -4.08 63.84 -4.53 C 63.92 -4.97 64.02 -5.42 64.13 -5.88 C 64.22 -6.33 64.33 -6.8 64.45 -7.27 C 64.56 -7.73 64.69 -8.2 64.83 -8.67 L 64.83 -8.67 L 68.94 -22.84 L 71.67 -22.84 L 75.95 -8.56 C 76.09 -8.08 76.23 -7.59 76.36 -7.11 C 76.48 -6.63 76.59 -6.16 76.7 -5.72 C 76.8 -5.27 76.89 -4.83 76.97 -4.42 C 77.05 -4 77.11 -3.61 77.17 -3.25 L 77.17 -3.25 C 77.25 -3.77 77.33 -4.3 77.44 -4.86 C 77.55 -5.42 77.67 -6.02 77.81 -6.63 C 77.95 -7.23 78.09 -7.88 78.27 -8.53 L 78.27 -8.53 L 81.94 -22.84 Z M 105.39 0 L 102.64 0 L 99.83 -7.25 L 90.67 -7.25 L 87.88 0 L 85.19 0 L 94.13 -22.94 L 96.52 -22.94 L 105.39 0 Z M 91.56 -9.61 L 99.03 -9.61 L 96.36 -16.81 C 96.3 -17 96.2 -17.31 96.06 -17.73 C 95.92 -18.16 95.77 -18.61 95.63 -19.06 C 95.48 -19.52 95.36 -19.89 95.27 -20.17 L 95.27 -20.17 C 95.16 -19.75 95.05 -19.33 94.94 -18.91 C 94.81 -18.48 94.69 -18.09 94.58 -17.73 C 94.47 -17.38 94.36 -17.06 94.28 -16.81 L 94.28 -16.81 L 91.56 -9.61 Z M 126.41 -22.84 L 126.41 0 L 123.34 0 L 110.89 -19.19 L 110.77 -19.19 C 110.8 -18.67 110.83 -18.09 110.88 -17.45 C 110.92 -16.8 110.95 -16.11 110.98 -15.38 C 111 -14.64 111.02 -13.89 111.02 -13.13 L 111.02 -13.13 L 111.02 0 L 108.55 0 L 108.55 -22.84 L 111.59 -22.84 L 124 -3.72 L 124.11 -3.72 C 124.09 -4.08 124.06 -4.61 124.03 -5.28 C 124 -5.95 123.97 -6.67 123.95 -7.45 C 123.92 -8.22 123.91 -8.94 123.91 -9.61 L 123.91 -9.61 L 123.91 -22.84 L 126.41 -22.84 Z M 139.66 -20.5 L 139.66 0 L 136.98 0 L 136.98 -20.5 L 129.8 -20.5 L 129.8 -22.84 L 146.81 -22.84 L 146.81 -20.5 L 139.66 -20.5 Z M 165.59 -20.5 L 165.59 0 L 162.92 0 L 162.92 -20.5 L 155.73 -20.5 L 155.73 -22.84 L 172.75 -22.84 L 172.75 -20.5 L 165.59 -20.5 Z M 196.02 -11.45 L 196.02 -11.45 C 196.02 -9.69 195.8 -8.09 195.34 -6.66 C 194.89 -5.2 194.23 -3.97 193.36 -2.94 C 192.47 -1.89 191.38 -1.09 190.08 -0.53 C 188.78 0.03 187.27 0.31 185.55 0.31 L 185.55 0.31 C 183.78 0.31 182.23 0.03 180.92 -0.53 C 179.59 -1.09 178.5 -1.89 177.64 -2.94 C 176.77 -3.98 176.11 -5.22 175.69 -6.67 C 175.25 -8.13 175.03 -9.72 175.03 -11.48 L 175.03 -11.48 C 175.03 -13.81 175.42 -15.86 176.19 -17.63 C 176.95 -19.39 178.13 -20.75 179.7 -21.73 C 181.27 -22.72 183.23 -23.2 185.59 -23.2 L 185.59 -23.2 C 187.86 -23.2 189.77 -22.72 191.31 -21.75 C 192.86 -20.78 194.03 -19.42 194.83 -17.67 C 195.63 -15.91 196.02 -13.84 196.02 -11.45 Z M 177.83 -11.45 L 177.83 -11.45 C 177.83 -9.52 178.11 -7.84 178.66 -6.42 C 179.2 -5 180.06 -3.91 181.2 -3.14 C 182.34 -2.38 183.78 -1.98 185.55 -1.98 L 185.55 -1.98 C 187.31 -1.98 188.77 -2.38 189.91 -3.14 C 191.03 -3.91 191.86 -5 192.41 -6.42 C 192.95 -7.84 193.22 -9.52 193.22 -11.45 L 193.22 -11.45 C 193.22 -14.41 192.61 -16.7 191.38 -18.38 C 190.14 -20.03 188.2 -20.86 185.59 -20.86 L 185.59 -20.86 C 183.83 -20.86 182.36 -20.48 181.22 -19.72 C 180.08 -18.95 179.22 -17.88 178.67 -16.48 C 178.11 -15.08 177.83 -13.41 177.83 -11.45 Z M 221.63 0 L 219.45 0 L 211.78 -20.22 L 211.66 -20.22 C 211.7 -19.8 211.73 -19.27 211.77 -18.66 C 211.8 -18.05 211.83 -17.38 211.84 -16.66 C 211.86 -15.92 211.88 -15.19 211.88 -14.44 L 211.88 -14.44 L 211.88 0 L 209.41 0 L 209.41 -22.84 L 213.34 -22.84 L 220.58 -3.84 L 220.69 -3.84 L 228.03 -22.84 L 231.94 -22.84 L 231.94 0 L 229.31 0 L 229.31 -14.63 C 229.31 -15.3 229.33 -15.98 229.34 -16.67 C 229.36 -17.34 229.39 -18 229.42 -18.61 C 229.45 -19.22 229.48 -19.73 229.52 -20.19 L 229.52 -20.19 L 229.39 -20.19 L 221.63 0 Z M 250.91 -2.34 L 250.91 0 L 238.19 0 L 238.19 -22.84 L 250.91 -22.84 L 250.91 -20.5 L 240.84 -20.5 L 240.84 -13.11 L 250.33 -13.11 L 250.33 -10.8 L 240.84 -10.8 L 240.84 -2.34 L 250.91 -2.34 Z M 268.69 -2.34 L 268.69 0 L 255.97 0 L 255.97 -22.84 L 268.69 -22.84 L 268.69 -20.5 L 258.63 -20.5 L 258.63 -13.11 L 268.11 -13.11 L 268.11 -10.8 L 258.63 -10.8 L 258.63 -2.34 L 268.69 -2.34 Z M 280.77 -20.5 L 280.77 0 L 278.09 0 L 278.09 -20.5 L 270.91 -20.5 L 270.91 -22.84 L 287.92 -22.84 L 287.92 -20.5 L 280.77 -20.5 Z M 299.47 -22.84 L 305.52 -11.39 L 311.59 -22.84 L 314.45 -22.84 L 306.84 -8.86 L 306.84 0 L 304.19 0 L 304.19 -8.73 L 296.56 -22.84 L 299.47 -22.84 Z M 337.39 -11.45 L 337.39 -11.45 C 337.39 -9.69 337.17 -8.09 336.72 -6.66 C 336.27 -5.2 335.61 -3.97 334.73 -2.94 C 333.84 -1.89 332.75 -1.09 331.45 -0.53 C 330.16 0.03 328.64 0.31 326.92 0.31 L 326.92 0.31 C 325.16 0.31 323.61 0.03 322.3 -0.53 C 320.97 -1.09 319.88 -1.89 319.02 -2.94 C 318.14 -3.98 317.48 -5.22 317.06 -6.67 C 316.63 -8.13 316.41 -9.72 316.41 -11.48 L 316.41 -11.48 C 316.41 -13.81 316.8 -15.86 317.56 -17.63 C 318.33 -19.39 319.5 -20.75 321.08 -21.73 C 322.64 -22.72 324.61 -23.2 326.97 -23.2 L 326.97 -23.2 C 329.23 -23.2 331.14 -22.72 332.69 -21.75 C 334.23 -20.78 335.41 -19.42 336.2 -17.67 C 337 -15.91 337.39 -13.84 337.39 -11.45 Z M 319.2 -11.45 L 319.2 -11.45 C 319.2 -9.52 319.48 -7.84 320.03 -6.42 C 320.58 -5 321.44 -3.91 322.58 -3.14 C 323.72 -2.38 325.16 -1.98 326.92 -1.98 L 326.92 -1.98 C 328.69 -1.98 330.14 -2.38 331.28 -3.14 C 332.41 -3.91 333.23 -5 333.78 -6.42 C 334.33 -7.84 334.59 -9.52 334.59 -11.45 L 334.59 -11.45 C 334.59 -14.41 333.98 -16.7 332.75 -18.38 C 331.52 -20.03 329.58 -20.86 326.97 -20.86 L 326.97 -20.86 C 325.2 -20.86 323.73 -20.48 322.59 -19.72 C 321.45 -18.95 320.59 -17.88 320.05 -16.48 C 319.48 -15.08 319.2 -13.41 319.2 -11.45 Z M 357.11 -22.84 L 359.75 -22.84 L 359.75 -8.06 C 359.75 -6.45 359.42 -5.02 358.78 -3.75 C 358.13 -2.48 357.14 -1.5 355.83 -0.78 C 354.52 -0.05 352.88 0.31 350.89 0.31 L 350.89 0.31 C 348.06 0.31 345.92 -0.45 344.45 -1.98 C 342.97 -3.52 342.23 -5.56 342.23 -8.13 L 342.23 -8.13 L 342.23 -22.84 L 344.91 -22.84 L 344.91 -8.05 C 344.91 -6.11 345.42 -4.61 346.45 -3.56 C 347.47 -2.52 349 -1.98 351.05 -1.98 L 351.05 -1.98 C 352.44 -1.98 353.59 -2.23 354.48 -2.75 C 355.38 -3.25 356.03 -3.95 356.47 -4.88 C 356.89 -5.78 357.11 -6.83 357.11 -8.03 L 357.11 -8.03 L 357.11 -22.84 Z" stroke-linecap="round" />
</g>
</g>
</g>
<g transform="matrix(1.1676470588235295 0 0 1.1676470588235295 464.62619123710465 921.3386239916356)" id="tagline-8dc7f0d1-9131-4391-b279-8a99d8440464-logo"  >
<g style=""  paint-order="stroke"   >
		<g transform="matrix(1 0 0 1 0 0)" id="tagline-8dc7f0d1-9131-4391-b279-8a99d8440464-logo-path-0"  >
<path style="stroke: none; stroke-width: 0; stroke-dasharray: none; stroke-linecap: butt; stroke-dashoffset: 0; stroke-linejoin: miter; stroke-miterlimit: 4; fill: rgb(66,66,66); fill-rule: nonzero; opacity: 0.78;"  paint-order="stroke"  transform=" translate(-252.36999999999998, 19.919999999999998)" d="M 17.77 -22.64 L 34.29 0 L 28.79 0 L 14.38 -19.44 L 10.12 -15.61 L 10.12 0 L 5.47 0 L 5.47 -39.98 L 10.12 -39.98 L 10.12 -20.04 C 11.16 -21.22 12.22 -22.42 13.32 -23.6 C 14.41 -24.77 15.5 -25.95 16.57 -27.15 L 16.57 -27.15 L 28.25 -39.98 L 33.69 -39.98 L 17.77 -22.64 Z M 64.18 -4.16 L 64.18 0 L 36.42 0 L 36.42 -3.5 L 57.94 -35.82 L 37.16 -35.82 L 37.16 -39.98 L 63.6 -39.98 L 63.6 -36.48 L 42.05 -4.16 L 64.18 -4.16 Z M 106.48 -20.04 L 106.48 -20.04 C 106.48 -16.95 106.09 -14.16 105.3 -11.65 C 104.51 -9.11 103.36 -6.95 101.83 -5.14 C 100.27 -3.31 98.36 -1.91 96.09 -0.93 C 93.82 0.05 91.16 0.55 88.16 0.55 L 88.16 0.55 C 85.07 0.55 82.36 0.05 80.06 -0.93 C 77.74 -1.91 75.82 -3.31 74.32 -5.14 C 72.79 -6.97 71.64 -9.13 70.9 -11.68 C 70.14 -14.22 69.75 -17.01 69.75 -20.1 L 69.75 -20.1 C 69.75 -24.17 70.44 -27.75 71.78 -30.84 C 73.12 -33.93 75.17 -36.31 77.93 -38.04 C 80.66 -39.76 84.11 -40.61 88.24 -40.61 L 88.24 -40.61 C 92.2 -40.61 95.54 -39.76 98.25 -38.06 C 100.95 -36.37 103 -33.99 104.4 -30.93 C 105.79 -27.84 106.48 -24.23 106.48 -20.04 Z M 74.65 -20.04 L 74.65 -20.04 C 74.65 -16.65 75.14 -13.73 76.1 -11.24 C 77.05 -8.75 78.56 -6.84 80.55 -5.5 C 82.55 -4.16 85.07 -3.47 88.16 -3.47 L 88.16 -3.47 C 91.25 -3.47 93.79 -4.16 95.79 -5.5 C 97.75 -6.84 99.2 -8.75 100.16 -11.24 C 101.12 -13.73 101.58 -16.65 101.58 -20.04 L 101.58 -20.04 C 101.58 -25.21 100.52 -29.23 98.36 -32.16 C 96.2 -35.05 92.8 -36.5 88.24 -36.5 L 88.24 -36.5 C 85.15 -36.5 82.58 -35.85 80.58 -34.51 C 78.59 -33.17 77.08 -31.28 76.13 -28.85 C 75.14 -26.39 74.65 -23.46 74.65 -20.04 Z M 150.04 -20.04 L 150.04 -20.04 C 150.04 -16.95 149.65 -14.16 148.86 -11.65 C 148.07 -9.11 146.92 -6.95 145.39 -5.14 C 143.83 -3.31 141.91 -1.91 139.64 -0.93 C 137.38 0.05 134.72 0.55 131.71 0.55 L 131.71 0.55 C 128.63 0.55 125.92 0.05 123.62 -0.93 C 121.3 -1.91 119.38 -3.31 117.88 -5.14 C 116.35 -6.97 115.2 -9.13 114.46 -11.68 C 113.7 -14.22 113.31 -17.01 113.31 -20.1 L 113.31 -20.1 C 113.31 -24.17 114 -27.75 115.34 -30.84 C 116.68 -33.93 118.73 -36.31 121.49 -38.04 C 124.22 -39.76 127.67 -40.61 131.8 -40.61 L 131.8 -40.61 C 135.76 -40.61 139.1 -39.76 141.8 -38.06 C 144.51 -36.37 146.56 -33.99 147.96 -30.93 C 149.35 -27.84 150.04 -24.23 150.04 -20.04 Z M 118.21 -20.04 L 118.21 -20.04 C 118.21 -16.65 118.7 -13.73 119.66 -11.24 C 120.61 -8.75 122.12 -6.84 124.11 -5.5 C 126.11 -4.16 128.63 -3.47 131.71 -3.47 L 131.71 -3.47 C 134.8 -3.47 137.35 -4.16 139.34 -5.5 C 141.31 -6.84 142.76 -8.75 143.72 -11.24 C 144.68 -13.73 145.14 -16.65 145.14 -20.04 L 145.14 -20.04 C 145.14 -25.21 144.07 -29.23 141.91 -32.16 C 139.75 -35.05 136.36 -36.5 131.8 -36.5 L 131.8 -36.5 C 128.71 -36.5 126.14 -35.85 124.14 -34.51 C 122.14 -33.17 120.64 -31.28 119.68 -28.85 C 118.7 -26.39 118.21 -23.46 118.21 -20.04 Z M 180.3 0 L 176.5 0 L 163.08 -35.38 L 162.86 -35.38 C 162.94 -34.64 163 -33.71 163.05 -32.65 C 163.11 -31.58 163.16 -30.41 163.19 -29.15 C 163.21 -27.86 163.24 -26.58 163.24 -25.27 L 163.24 -25.27 L 163.24 0 L 158.92 0 L 158.92 -39.98 L 165.81 -39.98 L 178.47 -6.73 L 178.66 -6.73 L 191.52 -39.98 L 198.35 -39.98 L 198.35 0 L 193.76 0 L 193.76 -25.59 C 193.76 -26.77 193.79 -27.97 193.81 -29.18 C 193.84 -30.35 193.89 -31.5 193.95 -32.57 C 194 -33.63 194.06 -34.54 194.11 -35.33 L 194.11 -35.33 L 193.89 -35.33 L 180.3 0 Z M 239.18 0 L 234.36 0 L 229.44 -12.69 L 213.42 -12.69 L 208.52 0 L 203.82 0 L 219.46 -40.14 L 223.64 -40.14 L 239.18 0 Z M 214.98 -16.82 L 228.05 -16.82 L 223.37 -29.42 C 223.26 -29.75 223.1 -30.3 222.85 -31.04 C 222.61 -31.77 222.33 -32.57 222.09 -33.36 C 221.84 -34.15 221.62 -34.81 221.46 -35.3 L 221.46 -35.3 C 221.27 -34.56 221.07 -33.82 220.88 -33.09 C 220.66 -32.35 220.45 -31.66 220.25 -31.04 C 220.06 -30.41 219.87 -29.86 219.73 -29.42 L 219.73 -29.42 L 214.98 -16.82 Z M 257 -22.64 L 273.52 0 L 268.02 0 L 253.61 -19.44 L 249.35 -15.61 L 249.35 0 L 244.7 0 L 244.7 -39.98 L 249.35 -39.98 L 249.35 -20.04 C 250.39 -21.22 251.45 -22.42 252.55 -23.6 C 253.64 -24.77 254.73 -25.95 255.8 -27.15 L 255.8 -27.15 L 267.48 -39.98 L 272.92 -39.98 L 257 -22.64 Z M 301.25 -4.1 L 301.25 0 L 278.99 0 L 278.99 -39.98 L 301.25 -39.98 L 301.25 -35.88 L 283.64 -35.88 L 283.64 -22.94 L 300.23 -22.94 L 300.23 -18.89 L 283.64 -18.89 L 283.64 -4.1 L 301.25 -4.1 Z M 310.11 -39.98 L 320.91 -39.98 C 324.19 -39.98 326.89 -39.57 329.05 -38.77 C 331.19 -37.95 332.77 -36.72 333.84 -35.05 C 334.91 -33.39 335.43 -31.28 335.43 -28.71 L 335.43 -28.71 C 335.43 -26.61 335.04 -24.83 334.28 -23.43 C 333.51 -22.01 332.5 -20.86 331.27 -19.99 C 330.04 -19.11 328.7 -18.43 327.3 -17.96 L 327.3 -17.96 L 338.27 0 L 332.86 0 L 323.07 -16.68 L 314.75 -16.68 L 314.75 0 L 310.11 0 L 310.11 -39.98 Z M 320.63 -35.96 L 314.75 -35.96 L 314.75 -20.62 L 321.1 -20.62 C 324.35 -20.62 326.76 -21.27 328.32 -22.61 C 329.85 -23.95 330.61 -25.89 330.61 -28.49 L 330.61 -28.49 C 330.61 -31.2 329.79 -33.14 328.18 -34.26 C 326.54 -35.38 324.02 -35.96 320.63 -35.96 L 320.63 -35.96 Z M 367.23 -10.64 L 367.23 -10.64 C 367.23 -8.26 366.63 -6.26 365.48 -4.59 C 364.3 -2.93 362.63 -1.64 360.53 -0.77 C 358.42 0.11 355.93 0.55 353.06 0.55 L 353.06 0.55 C 351.56 0.55 350.11 0.46 348.77 0.33 C 347.43 0.19 346.17 -0.03 345.05 -0.3 C 343.93 -0.57 342.92 -0.9 342.07 -1.31 L 342.07 -1.31 L 342.07 -5.77 C 343.44 -5.2 345.11 -4.68 347.07 -4.21 C 349.04 -3.72 351.09 -3.47 353.25 -3.47 L 353.25 -3.47 C 355.25 -3.47 356.95 -3.75 358.34 -4.29 C 359.73 -4.81 360.77 -5.61 361.51 -6.62 C 362.22 -7.63 362.58 -8.83 362.58 -10.25 L 362.58 -10.25 C 362.58 -11.62 362.28 -12.77 361.68 -13.7 C 361.07 -14.6 360.09 -15.45 358.7 -16.21 C 357.3 -16.95 355.39 -17.77 352.98 -18.62 L 352.98 -18.62 C 351.29 -19.22 349.78 -19.88 348.5 -20.62 C 347.21 -21.33 346.12 -22.15 345.24 -23.05 C 344.37 -23.95 343.71 -25.02 343.27 -26.22 C 342.81 -27.43 342.59 -28.79 342.59 -30.35 L 342.59 -30.35 C 342.59 -32.48 343.14 -34.32 344.23 -35.85 C 345.3 -37.35 346.8 -38.53 348.74 -39.35 C 350.66 -40.14 352.87 -40.55 355.36 -40.55 L 355.36 -40.55 C 357.49 -40.55 359.46 -40.36 361.29 -39.95 C 363.1 -39.54 364.77 -39.02 366.27 -38.34 L 366.27 -38.34 L 364.82 -34.34 C 363.37 -34.95 361.87 -35.44 360.25 -35.85 C 358.64 -36.26 356.97 -36.45 355.25 -36.45 L 355.25 -36.45 C 353.53 -36.45 352.08 -36.2 350.93 -35.71 C 349.75 -35.19 348.85 -34.48 348.22 -33.58 C 347.59 -32.68 347.29 -31.58 347.29 -30.32 L 347.29 -30.32 C 347.29 -28.93 347.59 -27.75 348.2 -26.82 C 348.77 -25.89 349.73 -25.07 351.04 -24.36 C 352.32 -23.63 354.05 -22.89 356.21 -22.09 L 356.21 -22.09 C 358.56 -21.25 360.55 -20.34 362.2 -19.39 C 363.84 -18.43 365.09 -17.25 365.94 -15.89 C 366.79 -14.49 367.23 -12.74 367.23 -10.64 Z M 374.01 -2.84 L 374.01 -2.84 C 374.01 -4.13 374.31 -5.03 374.94 -5.58 C 375.57 -6.1 376.3 -6.37 377.21 -6.37 L 377.21 -6.37 C 378.14 -6.37 378.93 -6.1 379.56 -5.58 C 380.19 -5.03 380.52 -4.13 380.52 -2.84 L 380.52 -2.84 C 380.52 -1.59 380.19 -0.68 379.56 -0.11 C 378.93 0.46 378.14 0.77 377.21 0.77 L 377.21 0.77 C 376.3 0.77 375.57 0.46 374.94 -0.11 C 374.31 -0.68 374.01 -1.59 374.01 -2.84 Z M 424.76 -20.04 L 424.76 -20.04 C 424.76 -16.95 424.38 -14.16 423.58 -11.65 C 422.79 -9.11 421.64 -6.95 420.11 -5.14 C 418.55 -3.31 416.64 -1.91 414.37 -0.93 C 412.1 0.05 409.45 0.55 406.44 0.55 L 406.44 0.55 C 403.35 0.55 400.64 0.05 398.34 -0.93 C 396.02 -1.91 394.11 -3.31 392.6 -5.14 C 391.07 -6.97 389.92 -9.13 389.18 -11.68 C 388.42 -14.22 388.04 -17.01 388.04 -20.1 L 388.04 -20.1 C 388.04 -24.17 388.72 -27.75 390.06 -30.84 C 391.4 -33.93 393.45 -36.31 396.21 -38.04 C 398.95 -39.76 402.39 -40.61 406.52 -40.61 L 406.52 -40.61 C 410.48 -40.61 413.82 -39.76 416.53 -38.06 C 419.23 -36.37 421.29 -33.99 422.68 -30.93 C 424.07 -27.84 424.76 -24.23 424.76 -20.04 Z M 392.93 -20.04 L 392.93 -20.04 C 392.93 -16.65 393.42 -13.73 394.38 -11.24 C 395.34 -8.75 396.84 -6.84 398.84 -5.5 C 400.83 -4.16 403.35 -3.47 406.44 -3.47 L 406.44 -3.47 C 409.53 -3.47 412.07 -4.16 414.07 -5.5 C 416.04 -6.84 417.48 -8.75 418.44 -11.24 C 419.4 -13.73 419.86 -16.65 419.86 -20.04 L 419.86 -20.04 C 419.86 -25.21 418.8 -29.23 416.64 -32.16 C 414.48 -35.05 411.09 -36.5 406.52 -36.5 L 406.52 -36.5 C 403.43 -36.5 400.86 -35.85 398.86 -34.51 C 396.87 -33.17 395.36 -31.28 394.41 -28.85 C 393.42 -26.39 392.93 -23.46 392.93 -20.04 Z M 433.64 -39.98 L 444.45 -39.98 C 447.73 -39.98 450.43 -39.57 452.59 -38.77 C 454.73 -37.95 456.31 -36.72 457.38 -35.05 C 458.45 -33.39 458.96 -31.28 458.96 -28.71 L 458.96 -28.71 C 458.96 -26.61 458.58 -24.83 457.82 -23.43 C 457.05 -22.01 456.04 -20.86 454.81 -19.99 C 453.58 -19.11 452.24 -18.43 450.84 -17.96 L 450.84 -17.96 L 461.81 0 L 456.39 0 L 446.61 -16.68 L 438.29 -16.68 L 438.29 0 L 433.64 0 L 433.64 -39.98 Z M 444.17 -35.96 L 438.29 -35.96 L 438.29 -20.62 L 444.64 -20.62 C 447.89 -20.62 450.3 -21.27 451.86 -22.61 C 453.39 -23.95 454.15 -25.89 454.15 -28.49 L 454.15 -28.49 C 454.15 -31.2 453.33 -33.14 451.72 -34.26 C 450.08 -35.38 447.56 -35.96 444.17 -35.96 L 444.17 -35.96 Z M 485.3 -16.79 L 485.3 -20.95 L 499.27 -20.95 L 499.27 -1.56 C 497.16 -0.85 495.03 -0.33 492.82 0.03 C 490.6 0.38 488.11 0.55 485.38 0.55 L 485.38 0.55 C 481.22 0.55 477.72 -0.27 474.88 -1.94 C 472.01 -3.61 469.85 -5.96 468.37 -9.05 C 466.89 -12.11 466.16 -15.75 466.16 -19.99 L 466.16 -19.99 C 466.16 -24.12 466.98 -27.73 468.62 -30.82 C 470.23 -33.91 472.61 -36.29 475.7 -38.01 C 478.79 -39.7 482.48 -40.55 486.83 -40.55 L 486.83 -40.55 C 489.04 -40.55 491.18 -40.36 493.17 -39.95 C 495.17 -39.54 497 -38.94 498.72 -38.2 L 498.72 -38.2 L 496.95 -34.15 C 495.47 -34.78 493.86 -35.33 492.08 -35.79 C 490.3 -36.26 488.44 -36.48 486.55 -36.48 L 486.55 -36.48 C 483.3 -36.48 480.51 -35.79 478.19 -34.45 C 475.86 -33.11 474.09 -31.2 472.86 -28.74 C 471.63 -26.28 471 -23.35 471 -19.99 L 471 -19.99 C 471 -16.65 471.54 -13.75 472.61 -11.29 C 473.68 -8.8 475.37 -6.89 477.64 -5.52 C 479.91 -4.16 482.86 -3.47 486.45 -3.47 L 486.45 -3.47 C 488.25 -3.47 489.81 -3.58 491.09 -3.8 C 492.38 -3.99 493.55 -4.24 494.62 -4.54 L 494.62 -4.54 L 494.62 -16.79 L 485.3 -16.79 Z" stroke-linecap="round" />
</g>
</g>
</g>
<g transform="matrix(1.1676470588235295 0 0 1.1676470588235295 389.62110570106546 348.7622455044592)" id="tagline-fa9ca382-81ca-48d3-80e6-ea5168b9ef36-logo"  >
<g style=""  paint-order="stroke"   >
		<g transform="matrix(1 0 0 1 0 0)" id="tagline-fa9ca382-81ca-48d3-80e6-ea5168b9ef36-logo-path-0"  >
<path style="stroke: none; stroke-width: 0; stroke-dasharray: none; stroke-linecap: butt; stroke-dashoffset: 0; stroke-linejoin: miter; stroke-miterlimit: 4; fill: rgb(66,66,66); fill-rule: nonzero; opacity: 0.79;"  paint-order="stroke"  transform=" translate(-45.92, 57.4)" d="M 11.48 -114.8 L 11.48 -68.88 L 22.96 -68.88 L 22.96 -103.32 L 80.36 -103.32 L 80.36 -114.8 Z M 80.36 -11.48 L 22.96 -11.48 L 22.96 -57.4 L 11.48 -57.4 L 11.48 0 L 80.36 0 Z M 22.96 -57.4 L 68.88 -57.4 L 68.88 -68.88 L 22.96 -68.88 Z" stroke-linecap="round" />
</g>
</g>
</g>
<g transform="matrix(1.1676470588235295 0 0 1.1676470588235295 170.6519209874606 495.72569663658294)" id="tagline-1869c99c-53c7-46ed-a81b-0da5222f6cd9-logo"  >
<g style=""  paint-order="stroke"   >
		<g transform="matrix(1 0 0 1 0 0)" id="tagline-1869c99c-53c7-46ed-a81b-0da5222f6cd9-logo-path-0"  >
<path style="stroke: none; stroke-width: 0; stroke-dasharray: none; stroke-linecap: butt; stroke-dashoffset: 0; stroke-linejoin: miter; stroke-miterlimit: 4; fill: rgb(66,66,66); fill-rule: nonzero; opacity: 1;"  paint-order="stroke"  transform=" translate(-63.525000000000006, 57.75)" d="M 11.55 -115.5 L 11.55 0 L 23.1 0 L 23.1 -92.4 L 34.65 -92.4 L 34.65 -103.95 L 23.1 -103.95 L 23.1 -115.5 Z M 34.65 -92.4 L 34.65 -80.85 L 46.2 -80.85 L 46.2 -92.4 Z M 46.2 -80.85 L 46.2 -57.75 L 57.75 -57.75 L 57.75 -80.85 Z M 57.75 -57.75 L 57.75 -46.2 L 69.3 -46.2 L 69.3 -57.75 Z M 69.3 -80.85 L 69.3 -57.75 L 80.85 -57.75 L 80.85 -80.85 Z M 80.85 -92.4 L 80.85 -80.85 L 92.4 -80.85 L 92.4 -92.4 Z M 92.4 -103.95 L 92.4 -92.4 L 103.95 -92.4 L 103.95 0 L 115.5 0 L 115.5 -115.5 L 103.95 -115.5 L 103.95 -103.95 Z" stroke-linecap="round" />
</g>
</g>
</g>
<g transform="matrix(1.1676470588235295 0 0 1.1676470588235295 507.70077089827896 496.42728904834775)" id="tagline-dff3a515-c086-4c4d-8338-ce192ab43f41-logo"  >
<g style=""  paint-order="stroke"   >
		<g transform="matrix(1 0 0 1 0 0)" id="tagline-dff3a515-c086-4c4d-8338-ce192ab43f41-logo-path-0"  >
<path style="stroke: none; stroke-width: 0; stroke-dasharray: none; stroke-linecap: butt; stroke-dashoffset: 0; stroke-linejoin: miter; stroke-miterlimit: 4; fill: rgb(66,66,66); fill-rule: nonzero; opacity: 1;"  paint-order="stroke"  transform=" translate(-45.92, 57.4)" d="M 11.48 -114.8 L 11.48 -68.88 L 22.96 -68.88 L 22.96 -103.32 L 80.36 -103.32 L 80.36 -114.8 Z M 80.36 -11.48 L 22.96 -11.48 L 22.96 -57.4 L 11.48 -57.4 L 11.48 0 L 80.36 0 Z M 22.96 -57.4 L 68.88 -57.4 L 68.88 -68.88 L 22.96 -68.88 Z" stroke-linecap="round" />
</g>
</g>
</g>
<g transform="matrix(1.1676470588235295 0 0 1.1676470588235295 488.7379053990788 645.2493964415439)" id="tagline-ad2cd4a1-a90e-4bb5-b9cc-cc48f4e74d07-logo"  >
<g style=""  paint-order="stroke"   >
		<g transform="matrix(1 0 0 1 0 0)" id="tagline-ad2cd4a1-a90e-4bb5-b9cc-cc48f4e74d07-logo-path-0"  >
<path style="stroke: none; stroke-width: 0; stroke-dasharray: none; stroke-linecap: butt; stroke-dashoffset: 0; stroke-linejoin: miter; stroke-miterlimit: 4; fill: rgb(66,66,66); fill-rule: nonzero; opacity: 1;"  paint-order="stroke"  transform=" translate(-79.05000000000001, 57.4)" d="M 11.48 -114.8 L 11.48 -57.4 L 22.96 -57.4 L 22.96 -103.32 L 80.36 -103.32 L 80.36 -114.8 Z M 22.96 -45.92 L 11.48 -45.92 L 11.48 0 L 22.96 0 Z M 22.96 -45.92 L 68.88 -45.92 L 68.88 -57.4 L 22.96 -57.4 Z M 77.74 -114.8 L 77.74 -57.4 L 89.22 -57.4 L 89.22 -103.32 L 146.62 -103.32 L 146.62 -114.8 Z M 89.22 -45.92 L 77.74 -45.92 L 77.74 0 L 89.22 0 Z M 89.22 -45.92 L 135.14 -45.92 L 135.14 -57.4 L 89.22 -57.4 Z" stroke-linecap="round" />
</g>
</g>
</g>
<g transform="matrix(0.17295365655534062 0 0 0.17295365655534062 67.4893388491239 322.5107144871651)" id="shape-e7f9c3df-0c7b-4287-9d0c-4a77b62ca6ab"  >
<g style=""  paint-order="stroke"   >
		<g transform="matrix(1 0 0 1 0 0)" id="Layer_1"  >
<rect style="stroke: none; stroke-width: 0; stroke-dasharray: none; stroke-linecap: butt; stroke-dashoffset: 0; stroke-linejoin: miter; stroke-miterlimit: 4; fill: rgb(66,66,66); fill-rule: nonzero; opacity: 1;"  paint-order="stroke"  x="-100" y="-100" rx="0" ry="0" width="200" height="200" />
</g>
</g>
</g>
<g transform="matrix(0.17295365655534062 0 0 0.17295365655534062 324.9024312169378 54.4714895390498)" id="shape-7078b000-e49d-45ba-906c-08b2262a411b"  >
<g style="opacity: 0.42;"  paint-order="stroke"   >
		<g transform="matrix(1 0 0 1 0 0)" id="Layer_1"  >
<rect style="stroke: none; stroke-width: 0; stroke-dasharray: none; stroke-linecap: butt; stroke-dashoffset: 0; stroke-linejoin: miter; stroke-miterlimit: 4; fill: rgb(66,66,66); fill-rule: nonzero; opacity: 1;"  paint-order="stroke"  x="-100" y="-100" rx="0" ry="0" width="200" height="200" />
</g>
</g>
</g>
<g transform="matrix(0.17295365655534062 0 0 0.17295365655534062 752.4219001439169 435.0595437674787)" id="shape-fe96f399-ffc8-4d1f-b83a-35fa27916a71"  >
<g style="opacity: 0.42;"  paint-order="stroke"   >
		<g transform="matrix(1 0 0 1 0 0)" id="Layer_1"  >
<rect style="stroke: none; stroke-width: 0; stroke-dasharray: none; stroke-linecap: butt; stroke-dashoffset: 0; stroke-linejoin: miter; stroke-miterlimit: 4; fill: rgb(66,66,66); fill-rule: nonzero; opacity: 1;"  paint-order="stroke"  x="-100" y="-100" rx="0" ry="0" width="200" height="200" />
</g>
</g>
</g>
<g transform="matrix(0.17295365655534062 0 0 0.17295365655534062 84.78470450465795 828.1746890685483)" id="shape-7a95addc-adf8-4518-9b02-06aac92ce9d7"  >
<g style="opacity: 0.42;"  paint-order="stroke"   >
		<g transform="matrix(1 0 0 1 0 0)" id="Layer_1"  >
<rect style="stroke: none; stroke-width: 0; stroke-dasharray: none; stroke-linecap: butt; stroke-dashoffset: 0; stroke-linejoin: miter; stroke-miterlimit: 4; fill: rgb(66,66,66); fill-rule: nonzero; opacity: 1;"  paint-order="stroke"  x="-100" y="-100" rx="0" ry="0" width="200" height="200" />
</g>
</g>
</g>
<g transform="matrix(0.17295365655534062 0 0 0.17295365655534062 717.8311688328487 757.3824453622959)" id="shape-78538d62-1bc5-4d98-bf7c-03852ddb418a"  >
<g style=""  paint-order="stroke"   >
		<g transform="matrix(1 0 0 1 0 0)" id="Layer_1"  >
<rect style="stroke: none; stroke-width: 0; stroke-dasharray: none; stroke-linecap: butt; stroke-dashoffset: 0; stroke-linejoin: miter; stroke-miterlimit: 4; fill: rgb(66,66,66); fill-rule: nonzero; opacity: 1;"  paint-order="stroke"  x="-100" y="-100" rx="0" ry="0" width="200" height="200" />
</g>
</g>
</g>
<g transform="matrix(0.17295365655534062 0 0 0.17295365655534062 670.5859578739726 1042.0089085211844)" id="shape-87078734-a564-453d-b50b-6a921a5a2da2"  >
<g style="opacity: 0.42;"  paint-order="stroke"   >
		<g transform="matrix(1 0 0 1 0 0)" id="Layer_1"  >
<rect style="stroke: none; stroke-width: 0; stroke-dasharray: none; stroke-linecap: butt; stroke-dashoffset: 0; stroke-linejoin: miter; stroke-miterlimit: 4; fill: rgb(66,66,66); fill-rule: nonzero; opacity: 1;"  paint-order="stroke"  x="-100" y="-100" rx="0" ry="0" width="200" height="200" />
</g>
</g>
</g>
<g transform="matrix(0.17295365655534062 0 0 0.17295365655534062 102.08007016019201 1042.0089085211844)" id="shape-56b8eaa5-4ad9-4c14-99cc-d3dc90698500"  >
<g style=""  paint-order="stroke"   >
		<g transform="matrix(1 0 0 1 0 0)" id="Layer_1"  >
<rect style="stroke: none; stroke-width: 0; stroke-dasharray: none; stroke-linecap: butt; stroke-dashoffset: 0; stroke-linejoin: miter; stroke-miterlimit: 4; fill: rgb(66,66,66); fill-rule: nonzero; opacity: 1;"  paint-order="stroke"  x="-100" y="-100" rx="0" ry="0" width="200" height="200" />
</g>
</g>
</g>
<g transform="matrix(0.17295365655534062 0 0 0.17295365655534062 675.5190496604199 247.4350480926945)" id="shape-465d6018-5857-4cc9-9462-39663b7fc549"  >
<g style=""  paint-order="stroke"   >
		<g transform="matrix(1 0 0 1 0 0)" id="Layer_1"  >
<rect style="stroke: none; stroke-width: 0; stroke-dasharray: none; stroke-linecap: butt; stroke-dashoffset: 0; stroke-linejoin: miter; stroke-miterlimit: 4; fill: rgb(66,66,66); fill-rule: nonzero; opacity: 1;"  paint-order="stroke"  x="-100" y="-100" rx="0" ry="0" width="200" height="200" />
</g>
</g>
</g>
<g transform="matrix(1.1676470588235295 0 0 1.1676470588235295 352.3516462001831 1085.020144372135)" id="tagline-dc0ef336-109f-4de3-b81b-4b29b0603b1e-logo"  >
<g style=""  paint-order="stroke"   >
		<g transform="matrix(1 0 0 1 0 0)" id="tagline-dc0ef336-109f-4de3-b81b-4b29b0603b1e-logo-path-0"  >
<path style="stroke: none; stroke-width: 0; stroke-dasharray: none; stroke-linecap: butt; stroke-dashoffset: 0; stroke-linejoin: miter; stroke-miterlimit: 4; fill: rgb(66,66,66); fill-rule: nonzero; opacity: 0.78;"  paint-order="stroke"  transform=" translate(-187.88, 9.659999999999998)" d="M 17.71 -19.27 L 17.71 0 L 15.12 0 L 4.61 -16.19 L 4.51 -16.19 C 4.54 -15.75 4.56 -15.27 4.6 -14.73 C 4.64 -14.17 4.67 -13.59 4.69 -12.97 C 4.71 -12.35 4.72 -11.72 4.72 -11.07 L 4.72 -11.07 L 4.72 0 L 2.64 0 L 2.64 -19.27 L 5.21 -19.27 L 15.68 -3.14 L 15.77 -3.14 C 15.75 -3.44 15.73 -3.89 15.7 -4.46 C 15.68 -5.02 15.65 -5.63 15.64 -6.29 C 15.61 -6.93 15.6 -7.54 15.6 -8.11 L 15.6 -8.11 L 15.6 -19.27 L 17.71 -19.27 Z M 39.68 -9.66 L 39.68 -9.66 C 39.68 -8.17 39.5 -6.83 39.12 -5.62 C 38.73 -4.39 38.18 -3.35 37.44 -2.48 C 36.69 -1.6 35.77 -0.92 34.67 -0.45 C 33.58 0.03 32.3 0.26 30.85 0.26 L 30.85 0.26 C 29.36 0.26 28.05 0.03 26.95 -0.45 C 25.83 -0.92 24.9 -1.6 24.18 -2.48 C 23.44 -3.36 22.89 -4.4 22.53 -5.63 C 22.16 -6.86 21.98 -8.2 21.98 -9.69 L 21.98 -9.69 C 21.98 -11.65 22.31 -13.38 22.95 -14.87 C 23.6 -16.36 24.59 -17.51 25.92 -18.34 C 27.24 -19.17 28.9 -19.58 30.89 -19.58 L 30.89 -19.58 C 32.8 -19.58 34.41 -19.17 35.71 -18.35 C 37.02 -17.53 38.01 -16.39 38.68 -14.91 C 39.35 -13.42 39.68 -11.68 39.68 -9.66 Z M 24.34 -9.66 L 24.34 -9.66 C 24.34 -8.03 24.57 -6.62 25.04 -5.42 C 25.5 -4.22 26.22 -3.3 27.18 -2.65 C 28.15 -2 29.36 -1.67 30.85 -1.67 L 30.85 -1.67 C 32.34 -1.67 33.57 -2 34.53 -2.65 C 35.48 -3.3 36.18 -4.22 36.64 -5.42 C 37.1 -6.62 37.32 -8.03 37.32 -9.66 L 37.32 -9.66 C 37.32 -12.16 36.81 -14.09 35.77 -15.5 C 34.73 -16.9 33.09 -17.6 30.89 -17.6 L 30.89 -17.6 C 29.4 -17.6 28.16 -17.28 27.2 -16.64 C 26.24 -15.99 25.51 -15.08 25.05 -13.91 C 24.57 -12.72 24.34 -11.31 24.34 -9.66 Z M 59.04 -19.27 L 59.04 0 L 56.45 0 L 45.94 -16.19 L 45.84 -16.19 C 45.87 -15.75 45.89 -15.27 45.93 -14.73 C 45.97 -14.17 46 -13.59 46.02 -12.97 C 46.04 -12.35 46.05 -11.72 46.05 -11.07 L 46.05 -11.07 L 46.05 0 L 43.97 0 L 43.97 -19.27 L 46.54 -19.27 L 57.01 -3.14 L 57.1 -3.14 C 57.08 -3.44 57.06 -3.89 57.03 -4.46 C 57.01 -5.02 56.98 -5.63 56.97 -6.29 C 56.94 -6.93 56.93 -7.54 56.93 -8.11 L 56.93 -8.11 L 56.93 -19.27 L 59.04 -19.27 Z M 71.31 -19.27 L 76.35 -19.27 C 78.84 -19.27 80.66 -18.79 81.8 -17.82 C 82.95 -16.85 83.52 -15.45 83.52 -13.65 L 83.52 -13.65 C 83.52 -12.83 83.39 -12.05 83.12 -11.32 C 82.85 -10.59 82.41 -9.94 81.82 -9.39 C 81.22 -8.82 80.43 -8.38 79.47 -8.07 C 78.5 -7.74 77.31 -7.58 75.9 -7.58 L 75.9 -7.58 L 73.55 -7.58 L 73.55 0 L 71.31 0 L 71.31 -19.27 Z M 76.14 -17.36 L 73.55 -17.36 L 73.55 -9.51 L 75.65 -9.51 C 76.87 -9.51 77.9 -9.64 78.73 -9.9 C 79.55 -10.16 80.17 -10.6 80.58 -11.19 C 80.99 -11.79 81.2 -12.56 81.2 -13.55 L 81.2 -13.55 C 81.2 -14.83 80.79 -15.79 79.97 -16.43 C 79.15 -17.05 77.88 -17.36 76.14 -17.36 L 76.14 -17.36 Z M 87.55 -19.27 L 92.76 -19.27 C 94.34 -19.27 95.65 -19.08 96.69 -18.69 C 97.72 -18.3 98.48 -17.71 99 -16.9 C 99.51 -16.1 99.76 -15.08 99.76 -13.84 L 99.76 -13.84 C 99.76 -12.83 99.58 -11.97 99.21 -11.3 C 98.84 -10.61 98.35 -10.06 97.76 -9.64 C 97.16 -9.22 96.52 -8.89 95.84 -8.66 L 95.84 -8.66 L 101.13 0 L 98.52 0 L 93.8 -8.04 L 89.79 -8.04 L 89.79 0 L 87.55 0 L 87.55 -19.27 Z M 92.63 -17.34 L 89.79 -17.34 L 89.79 -9.94 L 92.85 -9.94 C 94.42 -9.94 95.58 -10.26 96.33 -10.9 C 97.07 -11.55 97.44 -12.48 97.44 -13.74 L 97.44 -13.74 C 97.44 -15.04 97.04 -15.98 96.27 -16.52 C 95.48 -17.06 94.26 -17.34 92.63 -17.34 L 92.63 -17.34 Z M 120.93 -9.66 L 120.93 -9.66 C 120.93 -8.17 120.75 -6.83 120.37 -5.62 C 119.98 -4.39 119.43 -3.35 118.69 -2.48 C 117.94 -1.6 117.02 -0.92 115.92 -0.45 C 114.83 0.03 113.55 0.26 112.1 0.26 L 112.1 0.26 C 110.61 0.26 109.31 0.03 108.2 -0.45 C 107.08 -0.92 106.15 -1.6 105.43 -2.48 C 104.69 -3.36 104.14 -4.4 103.78 -5.63 C 103.41 -6.86 103.23 -8.2 103.23 -9.69 L 103.23 -9.69 C 103.23 -11.65 103.56 -13.38 104.2 -14.87 C 104.85 -16.36 105.84 -17.51 107.17 -18.34 C 108.49 -19.17 110.15 -19.58 112.14 -19.58 L 112.14 -19.58 C 114.05 -19.58 115.66 -19.17 116.96 -18.35 C 118.27 -17.53 119.26 -16.39 119.93 -14.91 C 120.6 -13.42 120.93 -11.68 120.93 -9.66 Z M 105.59 -9.66 L 105.59 -9.66 C 105.59 -8.03 105.82 -6.62 106.29 -5.42 C 106.75 -4.22 107.47 -3.3 108.44 -2.65 C 109.4 -2 110.61 -1.67 112.1 -1.67 L 112.1 -1.67 C 113.59 -1.67 114.82 -2 115.78 -2.65 C 116.73 -3.3 117.43 -4.22 117.89 -5.42 C 118.35 -6.62 118.57 -8.03 118.57 -9.66 L 118.57 -9.66 C 118.57 -12.16 118.06 -14.09 117.02 -15.5 C 115.98 -16.9 114.34 -17.6 112.14 -17.6 L 112.14 -17.6 C 110.65 -17.6 109.41 -17.28 108.45 -16.64 C 107.49 -15.99 106.76 -15.08 106.3 -13.91 C 105.82 -12.72 105.59 -11.31 105.59 -9.66 Z M 127.46 -8.27 L 127.46 0 L 125.22 0 L 125.22 -19.27 L 135.95 -19.27 L 135.95 -17.3 L 127.46 -17.3 L 127.46 -10.23 L 135.44 -10.23 L 135.44 -8.27 L 127.46 -8.27 Z M 141.39 0 L 139.15 0 L 139.15 -19.27 L 141.39 -19.27 L 141.39 0 Z M 152.61 -17.3 L 152.61 0 L 150.36 0 L 150.36 -17.3 L 144.29 -17.3 L 144.29 -19.27 L 158.65 -19.27 L 158.65 -17.3 L 152.61 -17.3 Z M 168.58 -19.27 L 173.61 -19.27 C 176.11 -19.27 177.93 -18.79 179.07 -17.82 C 180.22 -16.85 180.79 -15.45 180.79 -13.65 L 180.79 -13.65 C 180.79 -12.83 180.65 -12.05 180.39 -11.32 C 180.11 -10.59 179.68 -9.94 179.09 -9.39 C 178.49 -8.82 177.7 -8.38 176.74 -8.07 C 175.76 -7.74 174.58 -7.58 173.17 -7.58 L 173.17 -7.58 L 170.82 -7.58 L 170.82 0 L 168.58 0 L 168.58 -19.27 Z M 173.4 -17.36 L 170.82 -17.36 L 170.82 -9.51 L 172.92 -9.51 C 174.14 -9.51 175.17 -9.64 176 -9.9 C 176.82 -10.16 177.44 -10.6 177.85 -11.19 C 178.26 -11.79 178.47 -12.56 178.47 -13.55 L 178.47 -13.55 C 178.47 -14.83 178.06 -15.79 177.24 -16.43 C 176.42 -17.05 175.14 -17.36 173.4 -17.36 L 173.4 -17.36 Z M 197.17 -19.27 L 199.4 -19.27 L 199.4 -6.8 C 199.4 -5.44 199.13 -4.23 198.58 -3.16 C 198.03 -2.1 197.2 -1.27 196.09 -0.66 C 194.99 -0.04 193.6 0.26 191.93 0.26 L 191.93 0.26 C 189.54 0.26 187.73 -0.38 186.5 -1.67 C 185.24 -2.97 184.62 -4.69 184.62 -6.86 L 184.62 -6.86 L 184.62 -19.27 L 186.88 -19.27 L 186.88 -6.79 C 186.88 -5.15 187.31 -3.89 188.18 -3.01 C 189.04 -2.12 190.33 -1.67 192.06 -1.67 L 192.06 -1.67 C 193.23 -1.67 194.21 -1.89 194.96 -2.32 C 195.71 -2.74 196.26 -3.34 196.63 -4.11 C 196.99 -4.88 197.17 -5.76 197.17 -6.78 L 197.17 -6.78 L 197.17 -19.27 Z M 204.5 0 L 204.5 -19.27 L 209.96 -19.27 C 212.37 -19.27 214.18 -18.92 215.39 -18.19 C 216.61 -17.47 217.21 -16.24 217.21 -14.52 L 217.21 -14.52 C 217.21 -13.76 217.07 -13.09 216.79 -12.51 C 216.5 -11.92 216.08 -11.42 215.54 -11.03 C 215 -10.65 214.33 -10.38 213.52 -10.23 L 213.52 -10.23 L 213.52 -10.1 C 214.37 -9.97 215.12 -9.73 215.76 -9.37 C 216.41 -9.02 216.92 -8.53 217.29 -7.9 C 217.66 -7.26 217.85 -6.46 217.85 -5.48 L 217.85 -5.48 C 217.85 -4.3 217.57 -3.3 217.03 -2.48 C 216.47 -1.66 215.7 -1.04 214.69 -0.63 C 213.69 -0.21 212.51 0 211.14 0 L 211.14 0 L 204.5 0 Z M 206.75 -17.36 L 206.75 -11.01 L 210.44 -11.01 C 212.11 -11.01 213.28 -11.29 213.93 -11.84 C 214.58 -12.39 214.89 -13.2 214.89 -14.26 L 214.89 -14.26 C 214.89 -15.36 214.51 -16.15 213.75 -16.64 C 212.97 -17.13 211.74 -17.36 210.07 -17.36 L 210.07 -17.36 L 206.75 -17.36 Z M 210.56 -9.12 L 206.75 -9.12 L 206.75 -1.91 L 210.75 -1.91 C 212.47 -1.91 213.68 -2.25 214.39 -2.93 C 215.1 -3.6 215.46 -4.5 215.46 -5.64 L 215.46 -5.64 C 215.46 -6.37 215.3 -7 214.98 -7.51 C 214.66 -8.03 214.14 -8.44 213.43 -8.71 C 212.7 -8.99 211.75 -9.12 210.56 -9.12 L 210.56 -9.12 Z M 232.74 0 L 221.95 0 L 221.95 -19.27 L 224.19 -19.27 L 224.19 -2 L 232.74 -2 L 232.74 0 Z M 238.28 0 L 236.04 0 L 236.04 -19.27 L 238.28 -19.27 L 238.28 0 Z M 251.82 -17.57 L 251.82 -17.57 C 250.75 -17.57 249.8 -17.39 248.96 -17.03 C 248.1 -16.66 247.38 -16.14 246.8 -15.45 C 246.2 -14.75 245.74 -13.92 245.43 -12.95 C 245.11 -11.97 244.95 -10.88 244.95 -9.65 L 244.95 -9.65 C 244.95 -8.03 245.2 -6.63 245.72 -5.44 C 246.22 -4.25 246.97 -3.32 247.98 -2.68 C 248.99 -2.03 250.24 -1.7 251.75 -1.7 L 251.75 -1.7 C 252.61 -1.7 253.43 -1.78 254.19 -1.92 C 254.94 -2.07 255.68 -2.24 256.41 -2.47 L 256.41 -2.47 L 256.41 -0.51 C 255.71 -0.25 254.97 -0.05 254.19 0.07 C 253.42 0.2 252.51 0.26 251.44 0.26 L 251.44 0.26 C 249.47 0.26 247.84 -0.15 246.53 -0.96 C 245.21 -1.77 244.23 -2.91 243.58 -4.4 C 242.92 -5.89 242.59 -7.65 242.59 -9.66 L 242.59 -9.66 C 242.59 -11.13 242.8 -12.46 243.21 -13.67 C 243.62 -14.87 244.21 -15.91 245 -16.8 C 245.78 -17.68 246.74 -18.35 247.9 -18.84 C 249.05 -19.31 250.36 -19.55 251.85 -19.55 L 251.85 -19.55 C 252.82 -19.55 253.76 -19.46 254.67 -19.26 C 255.58 -19.06 256.39 -18.79 257.12 -18.43 L 257.12 -18.43 L 256.22 -16.53 C 255.6 -16.81 254.93 -17.06 254.21 -17.27 C 253.47 -17.47 252.68 -17.57 251.82 -17.57 Z M 275.84 -17.57 L 275.84 -17.57 C 274.77 -17.57 273.82 -17.39 272.98 -17.03 C 272.12 -16.66 271.4 -16.14 270.82 -15.45 C 270.22 -14.75 269.76 -13.92 269.45 -12.95 C 269.13 -11.97 268.97 -10.88 268.97 -9.65 L 268.97 -9.65 C 268.97 -8.03 269.22 -6.63 269.74 -5.44 C 270.24 -4.25 270.99 -3.32 272 -2.68 C 273.01 -2.03 274.26 -1.7 275.77 -1.7 L 275.77 -1.7 C 276.63 -1.7 277.45 -1.78 278.21 -1.92 C 278.96 -2.07 279.7 -2.24 280.43 -2.47 L 280.43 -2.47 L 280.43 -0.51 C 279.73 -0.25 278.99 -0.05 278.21 0.07 C 277.44 0.2 276.53 0.26 275.46 0.26 L 275.46 0.26 C 273.49 0.26 271.86 -0.15 270.55 -0.96 C 269.24 -1.77 268.25 -2.91 267.6 -4.4 C 266.94 -5.89 266.61 -7.65 266.61 -9.66 L 266.61 -9.66 C 266.61 -11.13 266.82 -12.46 267.23 -13.67 C 267.64 -14.87 268.23 -15.91 269.02 -16.8 C 269.8 -17.68 270.76 -18.35 271.92 -18.84 C 273.07 -19.31 274.38 -19.55 275.87 -19.55 L 275.87 -19.55 C 276.84 -19.55 277.78 -19.46 278.69 -19.26 C 279.6 -19.06 280.42 -18.79 281.14 -18.43 L 281.14 -18.43 L 280.24 -16.53 C 279.62 -16.81 278.95 -17.06 278.23 -17.27 C 277.49 -17.47 276.7 -17.57 275.84 -17.57 Z M 299.21 -19.27 L 299.21 0 L 296.97 0 L 296.97 -9.08 L 286.85 -9.08 L 286.85 0 L 284.61 0 L 284.61 -19.27 L 286.85 -19.27 L 286.85 -11.06 L 296.97 -11.06 L 296.97 -19.27 L 299.21 -19.27 Z M 318.92 0 L 316.6 0 L 314.23 -6.12 L 306.51 -6.12 L 304.15 0 L 301.88 0 L 309.42 -19.35 L 311.44 -19.35 L 318.92 0 Z M 307.26 -8.11 L 313.56 -8.11 L 311.3 -14.19 C 311.25 -14.34 311.17 -14.61 311.05 -14.96 C 310.94 -15.32 310.8 -15.7 310.68 -16.08 C 310.57 -16.47 310.46 -16.78 310.38 -17.02 L 310.38 -17.02 C 310.29 -16.66 310.2 -16.31 310.1 -15.95 C 310 -15.6 309.89 -15.27 309.8 -14.96 C 309.71 -14.66 309.62 -14.4 309.55 -14.19 L 309.55 -14.19 L 307.26 -8.11 Z M 321.59 -19.27 L 326.79 -19.27 C 328.38 -19.27 329.68 -19.08 330.72 -18.69 C 331.75 -18.3 332.52 -17.71 333.03 -16.9 C 333.54 -16.1 333.8 -15.08 333.8 -13.84 L 333.8 -13.84 C 333.8 -12.83 333.61 -11.97 333.24 -11.3 C 332.87 -10.61 332.38 -10.06 331.79 -9.64 C 331.2 -9.22 330.55 -8.89 329.88 -8.66 L 329.88 -8.66 L 335.17 0 L 332.56 0 L 327.84 -8.04 L 323.83 -8.04 L 323.83 0 L 321.59 0 L 321.59 -19.27 Z M 326.66 -17.34 L 323.83 -17.34 L 323.83 -9.94 L 326.89 -9.94 C 328.46 -9.94 329.62 -10.26 330.37 -10.9 C 331.11 -11.55 331.48 -12.48 331.48 -13.74 L 331.48 -13.74 C 331.48 -15.04 331.08 -15.98 330.3 -16.52 C 329.51 -17.06 328.3 -17.34 326.66 -17.34 L 326.66 -17.34 Z M 340.49 0 L 338.25 0 L 338.25 -19.27 L 340.49 -19.27 L 340.49 0 Z M 351.71 -17.3 L 351.71 0 L 349.46 0 L 349.46 -17.3 L 343.39 -17.3 L 343.39 -19.27 L 357.75 -19.27 L 357.75 -17.3 L 351.71 -17.3 Z M 360.48 -19.27 L 365.58 -9.61 L 370.71 -19.27 L 373.12 -19.27 L 366.7 -7.48 L 366.7 0 L 364.46 0 L 364.46 -7.37 L 358.03 -19.27 L 360.48 -19.27 Z" stroke-linecap="round" />
</g>
</g>
</g>
<g transform="matrix(1.1676470588235295 0 0 1.1676470588235295 340.0773719823375 741.1258744371778)" id="tagline-45f707cc-dc60-491e-bc08-e0ecf54d2708-logo"  >
<g style=""  paint-order="stroke"   >
		<g transform="matrix(1 0 0 1 0 0)" id="tagline-45f707cc-dc60-491e-bc08-e0ecf54d2708-logo-path-0"  >
<path style="stroke: none; stroke-width: 0; stroke-dasharray: none; stroke-linecap: butt; stroke-dashoffset: 0; stroke-linejoin: miter; stroke-miterlimit: 4; fill: rgb(66,66,66); fill-rule: nonzero; opacity: 0.78;"  paint-order="stroke"  transform=" translate(-72.895, 9.659999999999998)" d="M 14.99 -19.27 L 17.22 -19.27 L 17.22 -6.8 C 17.22 -5.44 16.94 -4.23 16.4 -3.16 C 15.85 -2.1 15.02 -1.27 13.91 -0.66 C 12.8 -0.04 11.42 0.26 9.74 0.26 L 9.74 0.26 C 7.36 0.26 5.55 -0.38 4.31 -1.67 C 3.06 -2.97 2.44 -4.69 2.44 -6.86 L 2.44 -6.86 L 2.44 -19.27 L 4.69 -19.27 L 4.69 -6.79 C 4.69 -5.15 5.13 -3.89 6 -3.01 C 6.86 -2.12 8.15 -1.67 9.87 -1.67 L 9.87 -1.67 C 11.05 -1.67 12.02 -1.89 12.77 -2.32 C 13.53 -2.74 14.08 -3.34 14.45 -4.11 C 14.81 -4.88 14.99 -5.76 14.99 -6.78 L 14.99 -6.78 L 14.99 -19.27 Z M 37.57 -17.57 L 37.57 -17.57 C 36.51 -17.57 35.56 -17.39 34.71 -17.03 C 33.86 -16.66 33.13 -16.14 32.55 -15.45 C 31.96 -14.75 31.5 -13.92 31.18 -12.95 C 30.86 -11.97 30.7 -10.88 30.7 -9.65 L 30.7 -9.65 C 30.7 -8.03 30.96 -6.63 31.47 -5.44 C 31.97 -4.25 32.72 -3.32 33.74 -2.68 C 34.74 -2.03 35.99 -1.7 37.51 -1.7 L 37.51 -1.7 C 38.36 -1.7 39.18 -1.78 39.95 -1.92 C 40.7 -2.07 41.44 -2.24 42.16 -2.47 L 42.16 -2.47 L 42.16 -0.51 C 41.46 -0.25 40.72 -0.05 39.95 0.07 C 39.17 0.2 38.26 0.26 37.19 0.26 L 37.19 0.26 C 35.23 0.26 33.59 -0.15 32.29 -0.96 C 30.97 -1.77 29.98 -2.91 29.33 -4.4 C 28.67 -5.89 28.34 -7.65 28.34 -9.66 L 28.34 -9.66 C 28.34 -11.13 28.56 -12.46 28.96 -13.67 C 29.37 -14.87 29.97 -15.91 30.76 -16.8 C 31.54 -17.68 32.5 -18.35 33.66 -18.84 C 34.8 -19.31 36.11 -19.55 37.6 -19.55 L 37.6 -19.55 C 38.58 -19.55 39.51 -19.46 40.42 -19.26 C 41.33 -19.06 42.15 -18.79 42.87 -18.43 L 42.87 -18.43 L 41.98 -16.53 C 41.36 -16.81 40.68 -17.06 39.96 -17.27 C 39.22 -17.47 38.43 -17.57 37.57 -17.57 Z M 60.75 0 L 58.43 0 L 56.06 -6.12 L 48.33 -6.12 L 45.97 0 L 43.7 0 L 51.24 -19.35 L 53.26 -19.35 L 60.75 0 Z M 49.08 -8.11 L 55.38 -8.11 L 53.13 -14.19 C 53.08 -14.34 53 -14.61 52.88 -14.96 C 52.76 -15.32 52.63 -15.7 52.51 -16.08 C 52.39 -16.47 52.29 -16.78 52.21 -17.02 L 52.21 -17.02 C 52.11 -16.66 52.02 -16.31 51.93 -15.95 C 51.82 -15.6 51.72 -15.27 51.63 -14.96 C 51.53 -14.66 51.44 -14.4 51.38 -14.19 L 51.38 -14.19 L 49.08 -8.11 Z M 78.48 -19.27 L 78.48 0 L 75.9 0 L 65.39 -16.19 L 65.29 -16.19 C 65.31 -15.75 65.34 -15.27 65.38 -14.73 C 65.42 -14.17 65.44 -13.59 65.47 -12.97 C 65.48 -12.35 65.5 -11.72 65.5 -11.07 L 65.5 -11.07 L 65.5 0 L 63.41 0 L 63.41 -19.27 L 65.98 -19.27 L 76.45 -3.14 L 76.54 -3.14 C 76.53 -3.44 76.5 -3.89 76.48 -4.46 C 76.45 -5.02 76.43 -5.63 76.41 -6.29 C 76.39 -6.93 76.37 -7.54 76.37 -8.11 L 76.37 -8.11 L 76.37 -19.27 L 78.48 -19.27 Z M 96.68 -17.3 L 96.68 0 L 94.42 0 L 94.42 -17.3 L 88.36 -17.3 L 88.36 -19.27 L 102.71 -19.27 L 102.71 -17.3 L 96.68 -17.3 Z M 122.34 -9.66 L 122.34 -9.66 C 122.34 -8.17 122.16 -6.83 121.78 -5.62 C 121.39 -4.39 120.84 -3.35 120.1 -2.48 C 119.35 -1.6 118.43 -0.92 117.33 -0.45 C 116.24 0.03 114.96 0.26 113.51 0.26 L 113.51 0.26 C 112.02 0.26 110.72 0.03 109.61 -0.45 C 108.49 -0.92 107.56 -1.6 106.84 -2.48 C 106.1 -3.36 105.55 -4.4 105.19 -5.63 C 104.82 -6.86 104.64 -8.2 104.64 -9.69 L 104.64 -9.69 C 104.64 -11.65 104.97 -13.38 105.61 -14.87 C 106.26 -16.36 107.25 -17.51 108.58 -18.34 C 109.9 -19.17 111.56 -19.58 113.55 -19.58 L 113.55 -19.58 C 115.46 -19.58 117.07 -19.17 118.38 -18.35 C 119.68 -17.53 120.67 -16.39 121.34 -14.91 C 122.01 -13.42 122.34 -11.68 122.34 -9.66 Z M 107 -9.66 L 107 -9.66 C 107 -8.03 107.24 -6.62 107.7 -5.42 C 108.16 -4.22 108.88 -3.3 109.85 -2.65 C 110.81 -2 112.02 -1.67 113.51 -1.67 L 113.51 -1.67 C 115 -1.67 116.23 -2 117.19 -2.65 C 118.14 -3.3 118.84 -4.22 119.3 -5.42 C 119.76 -6.62 119.98 -8.03 119.98 -9.66 L 119.98 -9.66 C 119.98 -12.16 119.47 -14.09 118.43 -15.5 C 117.39 -16.9 115.75 -17.6 113.55 -17.6 L 113.55 -17.6 C 112.06 -17.6 110.82 -17.28 109.86 -16.64 C 108.9 -15.99 108.17 -15.08 107.71 -13.91 C 107.24 -12.72 107 -11.31 107 -9.66 Z M 143.35 -9.66 L 143.35 -9.66 C 143.35 -8.17 143.16 -6.83 142.78 -5.62 C 142.4 -4.39 141.84 -3.35 141.1 -2.48 C 140.35 -1.6 139.43 -0.92 138.34 -0.45 C 137.24 0.03 135.96 0.26 134.51 0.26 L 134.51 0.26 C 133.02 0.26 131.72 0.03 130.61 -0.45 C 129.49 -0.92 128.57 -1.6 127.84 -2.48 C 127.1 -3.36 126.55 -4.4 126.19 -5.63 C 125.82 -6.86 125.64 -8.2 125.64 -9.69 L 125.64 -9.69 C 125.64 -11.65 125.97 -13.38 126.62 -14.87 C 127.26 -16.36 128.25 -17.51 129.58 -18.34 C 130.9 -19.17 132.56 -19.58 134.55 -19.58 L 134.55 -19.58 C 136.46 -19.58 138.07 -19.17 139.38 -18.35 C 140.68 -17.53 141.67 -16.39 142.34 -14.91 C 143.02 -13.42 143.35 -11.68 143.35 -9.66 Z M 128 -9.66 L 128 -9.66 C 128 -8.03 128.24 -6.62 128.7 -5.42 C 129.16 -4.22 129.88 -3.3 130.85 -2.65 C 131.81 -2 133.02 -1.67 134.51 -1.67 L 134.51 -1.67 C 136 -1.67 137.23 -2 138.19 -2.65 C 139.14 -3.3 139.84 -4.22 140.3 -5.42 C 140.76 -6.62 140.99 -8.03 140.99 -9.66 L 140.99 -9.66 C 140.99 -12.16 140.47 -14.09 139.43 -15.5 C 138.39 -16.9 136.75 -17.6 134.55 -17.6 L 134.55 -17.6 C 133.06 -17.6 131.82 -17.28 130.86 -16.64 C 129.9 -15.99 129.17 -15.08 128.71 -13.91 C 128.24 -12.72 128 -11.31 128 -9.66 Z" stroke-linecap="round" />
</g>
</g>
</g>
</svg>