<?xml version="1.0" encoding="UTF-8" standalone="no"?>
<!-- Created with Inkscape (http://www.inkscape.org/) -->

<svg
   version="1.1"
   id="svg824"
   xml:space="preserve"
   width="50"
   height="50"
   viewBox="0 0 49.999999 50"
   xmlns="http://www.w3.org/2000/svg"
   xmlns:svg="http://www.w3.org/2000/svg"><defs
     id="defs828"><clipPath
       clipPathUnits="userSpaceOnUse"
       id="clipPath838"><path
         d="M 0,292.596 H 612 V 0 H 0 Z"
         id="path836" /></clipPath></defs><g
     id="g830"
     transform="matrix(1.3333333,0,0,-1.3333333,-39.885732,325.03879)"><g
       id="g832"
       transform="matrix(0.18377241,0,0,0.18377174,24.416877,198.97939)"><g
         id="g834"
         clip-path="url(#clipPath838)"><g
           id="g840"
           transform="translate(195.3831,205.19)"><path
             d="m 0,0 c -17.482,17.482 -40.453,26.226 -63.415,26.226 -22.969,0 -45.931,-8.74 -63.417,-26.226 -0.09,-0.09 -0.173,-0.185 -0.262,-0.275 l 12.827,-12.828 c 0.967,-0.967 1.509,-2.278 1.509,-3.644 v -22.327 l 19.566,19.565 v 5.65 c -4.115,1.825 -6.996,5.943 -6.996,10.728 0,6.471 5.264,11.736 11.736,11.736 6.471,0 11.736,-5.265 11.736,-11.736 0,-4.458 -2.499,-8.342 -6.168,-10.328 v -8.184 c 0,-1.367 -0.543,-2.677 -1.509,-3.645 l -20.777,-20.775 h 9.938 c 1.366,0 2.677,-0.542 3.645,-1.509 l 26.485,-26.485 v 25.766 c 0,2.085 1.256,3.964 3.182,4.761 1.924,0.798 4.142,0.356 5.616,-1.116 l 22.116,-22.119 18.599,18.6 v 7.156 c -3.115,1.775 -5.224,5.12 -5.224,8.954 0,5.681 4.622,10.303 10.303,10.303 5.681,0 10.304,-4.622 10.304,-10.303 0,-3.772 -2.044,-7.068 -5.076,-8.864 v -9.382 -1.037 -32.6 l 8.375,-9.376 c 0.843,-0.944 1.309,-2.167 1.309,-3.433 v -25.314 C 34.874,-86.869 33.423,-33.424 0,0"
             style="fill:#0097a7;fill-opacity:1;fill-rule:nonzero;stroke:none"
             id="path842" /></g><g
           id="g844"
           transform="translate(179.7937,119.2851)"><path
             d="M 0,0 V 23.162 L -13.445,9.716 V -4.772 c 3.891,-1.913 6.582,-5.907 6.582,-10.528 0,-6.471 -5.264,-11.736 -11.735,-11.736 -6.472,0 -11.736,5.265 -11.736,11.736 0,4.621 2.691,8.615 6.582,10.528 V 9.716 L -39.205,25.171 V 0 c 0,-1.367 -0.543,-2.677 -1.509,-3.645 l -9.334,-9.332 v -7.41 c 3.891,-1.913 6.582,-5.907 6.582,-10.528 0,-6.471 -5.264,-11.736 -11.736,-11.736 -6.471,0 -11.736,5.265 -11.736,11.736 0,4.621 2.691,8.615 6.583,10.528 v 9.544 c 0,1.367 0.543,2.678 1.509,3.645 l 6.901,6.9 -29.832,29.833 H -97.168 V 4.636 c 3.073,-1.785 5.149,-5.105 5.149,-8.908 0,-5.682 -4.622,-10.304 -10.303,-10.304 -5.681,0 -10.304,4.622 -10.304,10.304 0,3.803 2.077,7.123 5.15,8.908 v 62.387 l -10.863,10.862 c -12.415,-15.738 -19.171,-35.043 -19.171,-55.397 0,-23.955 9.328,-46.477 26.268,-63.415 16.938,-16.939 39.459,-26.268 63.416,-26.268 21.273,0 41.405,7.371 57.51,20.881 v 33.505 L 1.309,-3.434 C 0.467,-2.489 0,-1.266 0,0"
             style="fill:#89d4e2;fill-opacity:1;fill-rule:nonzero;stroke:none"
             id="path846" /></g><g
           id="g848"
           transform="translate(101.8343,202.0586)"><path
             d="m 0,0 c 0,2.815 2.282,5.096 5.096,5.096 2.815,0 5.097,-2.281 5.097,-5.096 0,-2.815 -2.282,-5.096 -5.097,-5.096 C 2.282,-5.096 0,-2.815 0,0 m 97.951,-118.93 v 25.314 c 0,1.266 -0.466,2.489 -1.309,3.434 l -8.375,9.375 v 32.6 1.037 9.383 c 3.032,1.795 5.075,5.091 5.075,8.863 0,5.681 -4.622,10.303 -10.303,10.303 -5.681,0 -10.303,-4.622 -10.303,-10.303 0,-3.834 2.109,-7.179 5.223,-8.953 v -7.157 l -18.598,-18.6 -22.116,22.119 c -1.475,1.472 -3.692,1.915 -5.616,1.116 -1.926,-0.797 -3.182,-2.676 -3.182,-4.761 V -70.925 L 1.961,-44.44 c -0.967,0.966 -2.278,1.509 -3.644,1.509 h -9.938 l 20.776,20.775 c 0.967,0.967 1.509,2.278 1.509,3.644 v 8.184 c 3.67,1.986 6.169,5.871 6.169,10.328 0,6.471 -5.265,11.736 -11.737,11.736 C -1.375,11.736 -6.64,6.471 -6.64,0 c 0,-4.784 2.882,-8.902 6.997,-10.728 v -5.649 l -19.566,-19.565 v 22.326 c 0,1.367 -0.543,2.677 -1.509,3.645 L -33.545,2.856 c 0.089,0.09 0.172,0.185 0.262,0.275 17.486,17.487 40.448,26.226 63.417,26.226 22.962,0 45.933,-8.743 63.415,-26.226 33.423,-33.424 34.874,-86.869 4.402,-122.061 m -43.686,20.856 c 0,2.815 2.281,5.097 5.096,5.097 2.815,0 5.096,-2.282 5.096,-5.097 0,-2.814 -2.281,-5.096 -5.096,-5.096 -2.815,0 -5.096,2.282 -5.096,5.096 m -26.411,-15.614 c 0,-2.815 -2.281,-5.097 -5.096,-5.097 -2.815,0 -5.097,2.282 -5.097,5.097 0,2.814 2.282,5.096 5.097,5.096 2.815,0 5.096,-2.282 5.096,-5.096 m 59.79,-15.4 c -16.106,-13.509 -36.238,-20.88 -57.51,-20.88 -23.957,0 -46.479,9.328 -63.417,26.268 -16.939,16.938 -26.268,39.459 -26.268,63.415 0,20.354 6.757,39.658 19.171,55.397 l 10.864,-10.863 v -62.386 c -3.074,-1.786 -5.15,-5.106 -5.15,-8.909 0,-5.681 4.622,-10.303 10.303,-10.303 5.682,0 10.304,4.622 10.304,10.303 0,3.803 -2.077,7.123 -5.15,8.908 v 24.9 h 15.391 l 29.832,-29.833 -6.901,-6.9 c -0.966,-0.968 -1.509,-2.278 -1.509,-3.645 v -9.545 c -3.891,-1.913 -6.582,-5.907 -6.582,-10.527 0,-6.472 5.264,-11.736 11.736,-11.736 6.471,0 11.736,5.264 11.736,11.736 0,4.62 -2.691,8.614 -6.583,10.527 v 7.411 l 9.334,9.332 c 0.966,0.967 1.509,2.278 1.509,3.644 v 25.171 l 15.453,-15.454 v -14.489 c -3.891,-1.913 -6.582,-5.907 -6.582,-10.528 0,-6.471 5.265,-11.736 11.736,-11.736 6.471,0 11.736,5.265 11.736,11.736 0,4.621 -2.691,8.615 -6.582,10.528 v 14.489 l 13.444,13.446 v -23.163 c 0,-1.266 0.467,-2.489 1.31,-3.433 l 8.375,-9.376 z m 14.651,140.966 c -39.79,39.79 -104.534,39.79 -144.324,0 -19.276,-19.276 -29.891,-44.904 -29.891,-72.163 0,-27.26 10.615,-52.887 29.891,-72.161 19.275,-19.276 44.903,-29.891 72.163,-29.891 27.258,0 52.886,10.615 72.161,29.891 39.789,39.79 39.789,104.532 0,144.324"
             style="fill:#253238;fill-opacity:1;fill-rule:nonzero;stroke:none"
             id="path850" /></g><g
           id="g852"
           transform="translate(112.0272,202.0586)"><path
             d="m 0,0 c 0,2.815 -2.282,5.096 -5.096,5.096 -2.815,0 -5.097,-2.281 -5.097,-5.096 0,-2.815 2.282,-5.096 5.097,-5.096 C -2.282,-5.096 0,-2.815 0,0"
             style="fill:#ffffff;fill-opacity:1;fill-rule:nonzero;stroke:none"
             id="path854" /></g><g
           id="g856"
           transform="translate(119.4957,88.3702)"><path
             d="m 0,0 c 0,-2.815 2.282,-5.096 5.096,-5.096 2.815,0 5.097,2.281 5.097,5.096 0,2.815 -2.282,5.096 -5.097,5.096 C 2.282,5.096 0,2.815 0,0"
             style="fill:#ffffff;fill-opacity:1;fill-rule:nonzero;stroke:none"
             id="path858" /></g><g
           id="g860"
           transform="translate(166.2916,103.985)"><path
             d="m 0,0 c 0,2.815 -2.282,5.096 -5.096,5.096 -2.815,0 -5.097,-2.281 -5.097,-5.096 0,-2.815 2.282,-5.096 5.097,-5.096 C -2.282,-5.096 0,-2.815 0,0"
             style="fill:#ffffff;fill-opacity:1;fill-rule:nonzero;stroke:none"
             id="path862" /></g><g
           id="g864"
           transform="translate(325.805,134.0469)" /><g
           id="g868"
           transform="translate(405.3867,130.3068)" /><g
           id="g872"
           transform="translate(469.9626,149.6515)" /><g
           id="g876"
           transform="translate(548.4777,149.6515)" /><g
           id="g880"
           transform="translate(314.59,58.8688)" /><g
           id="g884"
           transform="translate(361.1102,71.636)" /><g
           id="g888"
           transform="translate(419.4366,59.69)" /><g
           id="g892"
           transform="translate(464.9614,58.8662)" /><g
           id="g896"
           transform="translate(510.2308,94.0126)" /><g
           id="g900"
           transform="translate(563.4772,68.9689)" /></g></g></g></svg>
